<svg xmlns="http://www.w3.org/2000/svg" xmlns:xlink="http://www.w3.org/1999/xlink" width="794" zoomAndPan="magnify" viewBox="0 0 594.95996 842.24997" height="1123" preserveAspectRatio="xMidYMid meet" version="1.2"><g id="879551678d"><path style=" stroke:none;fill-rule:nonzero;fill:#ffffff;fill-opacity:1;" d="M 291.113281 264.050781 C 307.542969 237.800781 320.679688 213.429688 337.027344 191.4375 C 365.253906 153.46875 402.800781 129.097656 450.28125 120.984375 C 516.007812 109.746094 560.53125 146.453125 567.890625 212.78125 C 579.375 316.375 550.710938 379.863281 500.855469 462.953125 C 442.921875 559.511719 366.878906 663.3125 298.082031 715.210938 C 276.6875 731.351562 219.488281 663.429688 156.867188 588.480469 C 68.6875 482.941406 16.007812 340.46875 40.539062 235.265625 C 55.847656 169.613281 118.757812 143.835938 174.707031 155.386719 C 221.105469 164.96875 253.53125 195.890625 276.675781 236.550781 C 281.507812 245.035156 285.773438 253.839844 291.113281 264.050781 Z M 291.113281 264.050781 "/></g></svg>