<svg xmlns="http://www.w3.org/2000/svg" xmlns:xlink="http://www.w3.org/1999/xlink" width="794" zoomAndPan="magnify" viewBox="0 0 594.95996 842.24997" height="1123" preserveAspectRatio="xMidYMid meet" version="1.2"><defs><clipPath id="8689a3a273"><path d="M 22.4375 121.492188 L 572.425781 121.492188 L 572.425781 719.238281 L 22.4375 719.238281 Z M 22.4375 121.492188 "/></clipPath></defs><g id="e6a98c01c1"><g clip-rule="nonzero" clip-path="url(#8689a3a273)"><path style=" stroke:none;fill-rule:nonzero;fill:#ffffff;fill-opacity:1;" d="M 529.984375 448.800781 C 487.332031 576.871094 412.320312 714.105469 331.269531 719.101562 C 292.789062 721.492188 243.5625 692.617188 196.902344 648.398438 C 146.476562 600.601562 99.039062 534.878906 71.496094 471.351562 C 2.421875 312.175781 6.832031 165.039062 81.320312 142.625 C 124.925781 129.523438 195.585938 155.78125 247.359375 218.246094 C 266.066406 240.8125 282.308594 268.105469 293.929688 299.972656 C 296.511719 294.84375 299.148438 289.789062 301.824219 284.824219 C 358.679688 179.15625 433.664062 112.773438 491.820312 122.417969 C 521.90625 127.398438 542.46875 142.054688 555.285156 164.15625 C 588.605469 221.582031 569.671875 329.34375 529.984375 448.800781 "/></g></g></svg>