<?xml version="1.0" encoding="utf-8"?>
<!-- Generator: Adobe Illustrator 27.5.0, SVG Export Plug-In . SVG Version: 6.00 Build 0)  -->
<svg version="1.1" id="Layer_1" xmlns="http://www.w3.org/2000/svg" xmlns:xlink="http://www.w3.org/1999/xlink" x="0px" y="0px"
	 viewBox="0 0 245.126 175.292" style="enable-background:new 0 0 245.126 175.292;" xml:space="preserve">
<g>
	<g>
		<g>
			<path style="fill:#66686A;" d="M145.333,156.709c1.194-0.158,2.398-0.233,3.602-0.218c1.205,0.015,2.389,0.163,3.587,0.267
				c1.651,0.144,3.433-0.149,5.061,0.254c0.141-0.139,0.263-0.292,0.361-0.46c0.152-0.26,0.258-0.746-0.122-0.869
				c-1.964-0.633-4.012-0.878-5.978-1.577c-1.926-0.682-3.041-1.757-3.721-3.31c-0.035-2.822-1.312-29.884-1.338-34.247
				c-0.012-2.317,0.193-5.005-0.079-7.492c0.344-0.879,0.68-1.888,0.648-2.757c-0.081-2.269-1.478-3.965-1.684-6.211
				c-0.54-5.873-2.837-28.363-3.136-29.065c-0.451-1.061-6.342-1.768-5.939,0.732c0.528,3.272,5.208,27.838,5.292,31.135
				c0.025,0.94,0.272,1.934,0.51,2.836c0.189,0.722-0.564,2.261-0.651,2.92c-0.138,0.999,0.289,1.997,0.997,2.634
				c-0.194,4.948,1.146,26.335,0.597,39.944c-0.005,0.037-0.015,0.071-0.022,0.109c-3.8,2.022-14.185,0.045-17.954,0.207
				c-0.546,0.168-1.031,0.417-1.424,0.781c-0.149,0.275-0.169,0.539,0.162,0.604c2.08,0.411,3.892,1.481,5.738,2.466
				c-1.056,0.088-11.765,2.297-16.084,3.038c-0.202,0.036-0.54,0.337-0.715,0.642c0.054,0.004,0.112,0.022,0.174,0.054
				c3.349,1.856,16.4-0.032,21.588-0.369C138.29,157.956,141.782,157.179,145.333,156.709z"/>
			<path style="fill:#66686A;" d="M138.366,81.552c0.363-1.193,0.573-2.437,0.993-3.615c0.059-0.166,0.27-0.159,0.331,0
				c0.281,0.729,0.408,1.514,0.733,2.224c0.365-0.905,0.496-1.895,0.757-2.831c0.043-0.154,0.3-0.173,0.331,0
				c0.297,1.663,0.493,3.342,0.643,5.025c0.551,6.178,0.462,12.566,2.542,18.488c0.051,0.144-0.13,0.267-0.252,0.194
				c-0.393-0.237-0.86-0.275-1.298-0.396c1.025,1.611,1.798,3.357,1.987,5.28c0.186,1.888-0.134,3.792-0.48,5.651
				c0.188-0.164,0.374-0.329,0.47-0.566c0.054-0.134,0.304-0.189,0.331,0c0.081,0.571,0.153,1.143,0.216,1.717
				c0.539,4.953,0.411,9.95,0.362,14.923c-0.025,2.525-0.035,5.052,0.062,7.576c0.055,1.443,0.19,2.879,0.266,4.32
				c0.128,2.426,0.195,4.862,0.578,7.266c0.342,2.146,0.905,4.573,2.5,6.161c0.85,0.846,1.877,1.227,2.957,1.317
				c-0.184-0.058-0.367-0.115-0.55-0.18c-1.926-0.682-3.041-1.757-3.721-3.31c-0.035-2.822-1.312-29.884-1.338-34.247
				c-0.012-2.317,0.193-5.005-0.079-7.492c0.344-0.879,0.68-1.888,0.648-2.757c-0.081-2.269-1.478-3.965-1.684-6.211
				c-0.54-5.873-2.837-28.363-3.136-29.065c-0.451-1.061-6.342-1.768-5.939,0.732C136.785,72.932,137.511,76.855,138.366,81.552z"/>
			<path style="fill:#66686A;" d="M151.562,156.109c-1.277-0.095-2.551-0.219-3.828-0.313c-1.26-0.092-2.518-0.17-3.779-0.059
				c-2.358,0.208-4.606,0.963-6.819,1.765c-1.464,0.53-2.938,1.017-4.434,1.43c0.787-0.073,1.499-0.133,2.101-0.173
				c3.487-0.803,6.979-1.58,10.531-2.051c1.194-0.158,2.398-0.233,3.602-0.218c1.205,0.015,2.389,0.163,3.587,0.267
				c1.651,0.144,3.433-0.149,5.061,0.254c0.141-0.139,0.263-0.292,0.361-0.46c0.084-0.144,0.151-0.358,0.132-0.541
				C155.923,156.317,153.737,156.27,151.562,156.109z"/>
			<path style="fill:#66686A;" d="M128.11,152.692c0.978,0.064,1.973-0.044,2.952-0.041c0.983,0.003,1.96,0.038,2.94,0.074
				c2.699,0.097,5.862,0.397,8.302-0.988c-4.379,1.321-13.466-0.344-16.94-0.195c-0.546,0.168-1.031,0.417-1.424,0.781
				c-0.08,0.146-0.12,0.287-0.093,0.399C125.215,152.06,126.68,152.597,128.11,152.692z"/>
			<path style="fill:#66686A;" d="M123.284,157.837c3.436-0.383,6.793-1.515,10.142-2.415c-0.868,0.019-1.734,0.033-2.607-0.026
				c-0.352-0.023-0.706-0.035-1.058-0.044c0.024,0.015,0.052,0.027,0.078,0.042c-1.056,0.088-11.765,2.297-16.084,3.038
				c-0.202,0.036-0.54,0.337-0.715,0.642c0.048,0.004,0.097,0.018,0.15,0.043C116.438,157.997,119.908,158.214,123.284,157.837z"/>
			<path style="fill:#66686A;" d="M143.32,151.322c0.314,0.473,0.677,0.897,1.12,1.221c-0.487-3.34-0.608-6.713-0.665-10.086
				c-0.063-3.619-0.162-7.237-0.219-10.856c-0.056-3.591-0.01-7.184-0.079-10.774c-0.031-1.513-0.043-3.028-0.085-4.54
				c-0.035-1.369-0.125-2.773-0.667-4.045c-0.032,6.308,1.135,26.121,0.615,38.985C143.336,151.259,143.327,151.289,143.32,151.322z
				"/>
			<path style="fill:#66686A;" d="M139.904,154.743c-3.329-0.125-6.675-0.647-9.963-1.084c-1.892-0.25-3.996-0.608-5.714-1.566
				c-0.101,0.071-0.197,0.147-0.287,0.231c-0.149,0.275-0.169,0.539,0.162,0.604c1.87,0.369,3.523,1.272,5.179,2.166
				C132.841,155.259,136.427,155.492,139.904,154.743z"/>
		</g>
		<g>
			<path style="fill:#F6F6F6;" d="M139.361,40.732c-3.176-3.434-8.383-2.333-11.731,0.21c-1.709,1.298-3.198,2.996-3.836,5.08
				c-0.558,1.821-0.471,3.73,0.015,5.557c0.512,1.924,1.404,3.739,2.369,5.472c0.141,0.254,0.288,0.505,0.432,0.757
				c0.443,0.946,0.917,1.878,1.404,2.801c0.869,1.647,1.762,3.28,2.579,4.954c1.012,2.072,1.983,4.166,3.109,6.179
				c1.208,2.159,2.596,4.33,4.509,5.936c0.382,0.321,0.723-0.29,0.735-0.606c0.035-0.948-0.137-1.876-0.296-2.806
				c0.313,0.43,0.653,0.835,1.081,1.159c0.321,0.243,0.694-0.225,0.655-0.54c-0.032-0.256-0.059-0.513-0.087-0.77
				c0.208,0.234,0.428,0.458,0.667,0.662c0.22,0.188,2.518,0.305,2.59,0.089c0.89-2.637-1.068-23.555-1.47-26.697
				C141.751,45.549,141.215,42.737,139.361,40.732z"/>
			<path style="opacity:0.4;fill:#D8D5BE;" d="M139.361,40.732c-3.176-3.434-8.383-2.333-11.731,0.21
				c-1.709,1.298-3.198,2.996-3.836,5.08c-0.558,1.821-0.471,3.73,0.015,5.557c0.512,1.924,1.404,3.739,2.369,5.472
				c0.141,0.254,0.288,0.505,0.432,0.757c0.443,0.946,0.917,1.878,1.404,2.801c0.869,1.647,1.762,3.28,2.579,4.954
				c1.012,2.072,1.983,4.166,3.109,6.179c1.208,2.159,2.596,4.33,4.509,5.936c0.382,0.321,0.723-0.29,0.735-0.606
				c0.035-0.948-0.137-1.876-0.296-2.806c0.313,0.43,0.653,0.835,1.081,1.159c0.321,0.243,0.694-0.225,0.655-0.54
				c-0.032-0.256-0.059-0.513-0.087-0.77c0.208,0.234,0.428,0.458,0.667,0.662c0.22,0.188,2.518,0.305,2.59,0.089
				c0.89-2.637-1.068-23.555-1.47-26.697C141.751,45.549,141.215,42.737,139.361,40.732z"/>
			<path style="opacity:0.4;fill:#D8D5BE;" d="M134.356,65.605c0.754,0.197,1.386,0.57,1.954,1.096
				c0.528,0.49,0.981,1.057,1.39,1.648c0.948,1.371,1.671,2.889,2.353,4.405c0.296,0.658,0.583,1.32,0.869,1.983
				c0.015,0.013,0.028,0.027,0.043,0.04c0.22,0.188,2.518,0.305,2.59,0.089c0.89-2.637-1.068-23.555-1.47-26.697
				c-0.335-2.62-0.87-5.432-2.725-7.437c-3.176-3.434-8.383-2.333-11.731,0.21c-1.709,1.298-3.198,2.996-3.836,5.08
				c-0.558,1.821-0.471,3.729,0.015,5.557c0.512,1.924,1.404,3.739,2.369,5.472c0.141,0.254,0.288,0.505,0.432,0.757
				c0.443,0.946,0.917,1.878,1.404,2.801c0.783,1.484,1.582,2.957,2.33,4.458C131.644,65.357,133.078,65.272,134.356,65.605z"/>
			<path style="opacity:0.4;fill:#D8D5BE;" d="M142.086,48.169c-0.335-2.62-0.87-5.432-2.725-7.437
				c-3.176-3.434-8.383-2.333-11.731,0.21c-1.709,1.298-3.198,2.996-3.836,5.08c-0.558,1.821-0.471,3.73,0.015,5.557
				c0.491,1.845,1.332,3.588,2.251,5.256c-0.269-2.356,0.027-4.722,0.888-6.935c0.067-0.172,0.293-0.104,0.327,0.048
				c0.385,1.713,0.619,3.453,0.869,5.19c0.196-1.732,0.374-3.496,1.228-5.037c0.083-0.15,0.292-0.123,0.327,0.048
				c0.295,1.454,0.277,2.946,0.465,4.413c0.172-0.63,0.398-1.248,0.662-1.842c0.355-0.801,0.788-1.605,1.385-2.254
				c0.442-0.48,1.124-1.017,1.827-0.887c0.731,0.134,1.216,0.858,1.553,1.459c0.902,1.609,1.256,3.446,1.84,5.178
				c0.908,2.692,1.575,5.46,2.145,8.242c0.568,2.776,1.035,5.571,1.533,8.359c0.027,0.149-0.166,0.247-0.277,0.155
				c-1.108-0.914-1.961-2.061-2.853-3.174c0.449,1.189,1.055,2.319,1.508,3.507c0.051,0.133-0.09,0.292-0.228,0.221
				c-1.098-0.563-1.969-1.455-2.739-2.411c0.185,0.546,0.404,1.081,0.625,1.61c0.615,1.477,1.286,2.94,1.783,4.463
				c0.009-0.041,0.015-0.08,0.016-0.115c0.035-0.948-0.137-1.876-0.296-2.806c0.313,0.43,0.653,0.835,1.081,1.159
				c0.321,0.243,0.694-0.225,0.655-0.54c-0.032-0.256-0.059-0.513-0.087-0.77c0.208,0.234,0.428,0.458,0.667,0.662
				c0.22,0.188,2.518,0.305,2.59,0.089C144.445,72.229,142.487,51.311,142.086,48.169z"/>
			<path style="fill:#66686A;" d="M152.101,97.834c-0.015-0.003-0.031-0.004-0.045-0.01c-0.012,0.016-0.006,0.03,0.039,0.028
				c0.001-0.005,0.002-0.012,0.004-0.014C152.101,97.836,152.1,97.836,152.101,97.834z"/>
		</g>
	</g>
	<g>
		<path style="fill:#66686A;" d="M168.403,160.804c-1.964-0.633-4.012-0.878-5.978-1.577c-1.926-0.682-3.041-1.757-3.721-3.31
			c-0.035-2.823-1.312-29.884-1.338-34.247c-0.012-2.317,0.193-5.005-0.078-7.492c0.344-0.879,0.68-1.888,0.648-2.757
			c-0.081-2.268-1.478-3.965-1.684-6.21c-0.54-5.873-2.837-28.363-3.136-29.065c-0.452-1.061-6.342-1.768-5.939,0.732
			c0.528,3.272,5.208,27.838,5.292,31.135c0.025,0.94,0.272,1.934,0.51,2.836c0.189,0.722-0.564,2.261-0.651,2.92
			c-0.138,1,0.289,1.997,0.997,2.634c-0.194,4.948,1.146,26.335,0.597,39.944c-0.005,0.037-0.015,0.071-0.022,0.109
			c-3.8,2.022-14.185,0.045-17.954,0.208c-0.546,0.168-1.031,0.417-1.424,0.781c-0.149,0.275-0.169,0.538,0.162,0.604
			c2.08,0.411,3.892,1.481,5.738,2.466c-1.056,0.088-11.765,2.297-16.084,3.038c-0.202,0.036-0.54,0.337-0.715,0.642
			c0.054,0.004,0.112,0.022,0.174,0.054c3.713,2.058,19.36-0.488,22.983-0.418c1.836-0.212,3.664-0.291,5.462-0.049
			c-0.91,3.281-2.891,7.982-1.801,8.817c0.157,0.119,0.381,0.054,0.532-0.041c1.364-0.876,2.035-2.6,2.731-3.993
			c1.251-2.497,2.153-5.277,4.773-6.557c1.545,0.919,3.735,1.05,5.365,1.259c1.463,0.186,3.879-0.213,4.684-1.594
			C168.677,161.413,168.783,160.926,168.403,160.804z"/>
		<path style="fill:#66686A;" d="M138.691,157.812c0.978,0.064,1.973-0.044,2.952-0.041c0.983,0.003,1.96,0.038,2.94,0.075
			c2.699,0.097,5.862,0.397,8.302-0.988c-4.379,1.321-13.465-0.344-16.94-0.194c-0.546,0.168-1.031,0.417-1.424,0.781
			c-0.08,0.146-0.12,0.287-0.093,0.399C135.796,157.18,137.261,157.717,138.691,157.812z"/>
		<path style="fill:#66686A;" d="M133.865,162.957c3.436-0.383,6.793-1.515,10.142-2.415c-0.868,0.019-1.734,0.033-2.607-0.026
			c-0.352-0.023-0.706-0.035-1.058-0.044c0.025,0.015,0.053,0.027,0.078,0.041c-1.056,0.088-11.765,2.297-16.084,3.038
			c-0.202,0.036-0.54,0.337-0.715,0.642c0.048,0.004,0.097,0.018,0.15,0.043C127.019,163.117,130.489,163.334,133.865,162.957z"/>
		<path style="fill:#66686A;" d="M151.83,166.839c0.575-1.746,1.532-3.568,1.79-5.421c-0.497,0.883-1.002,1.766-1.465,2.666
			c-0.94,3.255-2.766,7.692-1.717,8.511C150.728,170.637,151.208,168.718,151.83,166.839z"/>
		<path style="fill:#66686A;" d="M153.901,156.442c0.314,0.473,0.677,0.897,1.12,1.221c-0.487-3.34-0.608-6.713-0.665-10.086
			c-0.063-3.619-0.162-7.237-0.219-10.856c-0.056-3.591-0.01-7.184-0.079-10.775c-0.031-1.513-0.043-3.028-0.085-4.54
			c-0.035-1.369-0.125-2.773-0.667-4.044c-0.032,6.308,1.135,26.121,0.615,38.985C153.917,156.379,153.908,156.409,153.901,156.442z
			"/>
		<path style="fill:#66686A;" d="M150.485,159.863c-3.329-0.125-6.674-0.647-9.963-1.084c-1.892-0.25-3.996-0.608-5.714-1.566
			c-0.101,0.071-0.197,0.147-0.287,0.231c-0.149,0.275-0.169,0.538,0.162,0.604c1.87,0.369,3.523,1.272,5.178,2.166
			C143.422,160.379,147.008,160.612,150.485,159.863z"/>
		<path style="fill:#66686A;" d="M152.126,163.767c0.726-0.873,1.113-1.671,0.5-1.931c-0.669-0.282-1.446-0.093-2.141-0.02
			c-0.952,0.098-1.902,0.208-2.85,0.348c-2.067,0.306-4.128,0.651-6.189,0.978c-3.841,0.606-7.711,0.952-11.545,1.584
			c-0.864,0.142-1.892,0.281-2.888,0.243c5.975,0.468,16.827-1.196,19.767-1.139C148.576,163.623,150.367,163.546,152.126,163.767z"
			/>
		<path style="fill:#66686A;" d="M168.403,160.804c-1.964-0.633-4.012-0.878-5.978-1.577c-1.926-0.682-3.041-1.757-3.721-3.31
			c-0.035-2.823-1.312-29.884-1.338-34.247c-0.012-2.317,0.193-5.005-0.078-7.492c0.344-0.879,0.68-1.888,0.648-2.757
			c-0.081-2.268-1.478-3.965-1.684-6.21c-0.54-5.873-2.837-28.363-3.136-29.065c-0.452-1.061-6.342-1.768-5.939,0.732
			c0.198,1.222,0.973,5.414,1.874,10.357c-0.002-0.146-0.006-0.295-0.006-0.442c-0.001-1.3-0.085-2.869,0.456-4.086
			c0.281-0.64,0.956-1.115,1.611-0.66c0.737,0.51,1.041,1.697,1.259,2.505c0.786,2.92,1.074,6.054,1.407,9.045
			c0.56,5.003,0.865,10.027,1.347,15.038c0.015,0.148-0.185,0.204-0.279,0.115c-0.441-0.425-0.894-0.748-1.467-0.875
			c1.058,1.413,1.921,2.979,1.805,4.809c-0.078,1.221-0.326,2.393-0.281,3.628c0.007,0.211,0.019,0.424,0.029,0.635
			c0.144-0.356,0.314-0.7,0.54-1.018c0.096-0.133,0.29-0.085,0.305,0.082c0.62,8.176,0.038,16.368,0.001,24.552
			c-0.017,3.684-0.271,7.43,0.207,11.092c0.245,1.888,0.614,3.518,2,4.904c0.948,0.948,1.973,1.805,2.65,2.981
			c0.067,0.115-0.022,0.231-0.14,0.243c-1.256,0.147-2.411-0.43-3.654-0.43c-0.255,2.372-1.85,4.27-2.696,6.44
			c-0.495,1.264-0.995,2.525-1.578,3.751c-0.287,0.605-0.891,1.957-1.668,3.051c0.026-0.012,0.052-0.023,0.074-0.037
			c1.364-0.876,2.035-2.6,2.731-3.993c1.251-2.497,2.153-5.277,4.773-6.557c1.545,0.919,3.735,1.05,5.365,1.259
			c1.463,0.186,3.879-0.213,4.684-1.594C168.677,161.413,168.783,160.926,168.403,160.804z"/>
	</g>
	<g>
		<path style="fill:#F6F6F6;" d="M149.942,45.852c-3.176-3.434-8.383-2.333-11.731,0.21c-1.709,1.298-3.197,2.996-3.836,5.08
			c-0.558,1.821-0.471,3.73,0.016,5.557c0.512,1.924,1.404,3.738,2.369,5.472c0.141,0.254,0.288,0.505,0.432,0.757
			c0.443,0.946,0.917,1.878,1.404,2.801c0.869,1.647,1.762,3.28,2.579,4.954c1.012,2.072,1.982,4.166,3.109,6.179
			c1.208,2.159,2.596,4.33,4.509,5.936c0.382,0.321,0.723-0.29,0.735-0.606c0.035-0.948-0.137-1.876-0.296-2.806
			c0.313,0.43,0.653,0.835,1.081,1.159c0.321,0.243,0.694-0.225,0.655-0.54c-0.032-0.256-0.059-0.513-0.087-0.77
			c0.209,0.234,0.428,0.459,0.667,0.662c0.22,0.188,2.518,0.305,2.59,0.089c0.89-2.637-1.068-23.555-1.47-26.697
			C152.332,50.668,151.796,47.857,149.942,45.852z"/>
		<path style="opacity:0.4;fill:#D8D5BE;" d="M149.942,45.852c-3.176-3.434-8.383-2.333-11.731,0.21
			c-1.709,1.298-3.197,2.996-3.836,5.08c-0.558,1.821-0.471,3.73,0.016,5.557c0.512,1.924,1.404,3.738,2.369,5.472
			c0.141,0.254,0.288,0.505,0.432,0.757c0.443,0.946,0.917,1.878,1.404,2.801c0.869,1.647,1.762,3.28,2.579,4.954
			c1.012,2.072,1.982,4.166,3.109,6.179c1.208,2.159,2.596,4.33,4.509,5.936c0.382,0.321,0.723-0.29,0.735-0.606
			c0.035-0.948-0.137-1.876-0.296-2.806c0.313,0.43,0.653,0.835,1.081,1.159c0.321,0.243,0.694-0.225,0.655-0.54
			c-0.032-0.256-0.059-0.513-0.087-0.77c0.209,0.234,0.428,0.459,0.667,0.662c0.22,0.188,2.518,0.305,2.59,0.089
			c0.89-2.637-1.068-23.555-1.47-26.697C152.332,50.668,151.796,47.857,149.942,45.852z"/>
		<path style="opacity:0.4;fill:#D8D5BE;" d="M152.667,53.289c-0.335-2.62-0.87-5.432-2.725-7.437
			c-3.176-3.434-8.383-2.333-11.731,0.21c-1.709,1.298-3.197,2.996-3.836,5.08c-0.558,1.821-0.471,3.73,0.016,5.557
			c0.491,1.845,1.332,3.588,2.251,5.256c-0.269-2.356,0.027-4.722,0.888-6.935c0.067-0.172,0.293-0.104,0.327,0.048
			c0.385,1.713,0.619,3.453,0.869,5.19c0.196-1.732,0.374-3.496,1.228-5.037c0.083-0.15,0.293-0.123,0.327,0.048
			c0.295,1.454,0.277,2.946,0.465,4.413c0.172-0.63,0.398-1.247,0.662-1.842c0.356-0.801,0.788-1.605,1.385-2.254
			c0.442-0.48,1.124-1.016,1.827-0.887c0.732,0.134,1.216,0.858,1.553,1.459c0.902,1.609,1.256,3.446,1.84,5.178
			c0.908,2.692,1.575,5.46,2.145,8.242c0.568,2.776,1.035,5.571,1.534,8.359c0.027,0.149-0.166,0.247-0.277,0.155
			c-1.108-0.914-1.961-2.061-2.853-3.174c0.449,1.189,1.055,2.319,1.508,3.507c0.051,0.133-0.09,0.292-0.228,0.221
			c-1.098-0.563-1.969-1.455-2.739-2.411c0.185,0.546,0.404,1.081,0.625,1.61c0.615,1.477,1.286,2.94,1.783,4.463
			c0.009-0.041,0.015-0.08,0.016-0.115c0.035-0.948-0.137-1.876-0.296-2.806c0.313,0.43,0.653,0.835,1.081,1.159
			c0.321,0.243,0.694-0.225,0.655-0.54c-0.032-0.256-0.059-0.513-0.087-0.77c0.209,0.234,0.428,0.459,0.667,0.662
			c0.22,0.187,2.518,0.305,2.59,0.089C155.026,77.349,153.068,56.431,152.667,53.289z"/>
		<path style="fill:#66686A;" d="M162.682,102.954c-0.015-0.003-0.031-0.004-0.045-0.01c-0.012,0.016-0.006,0.03,0.039,0.029
			c0.001-0.005,0.002-0.012,0.004-0.014C162.682,102.956,162.681,102.956,162.682,102.954z"/>
	</g>
	<g>
		<g>
			<path style="fill:#F6F6F6;" d="M83.938,31.696c-1.028-0.885-2.831-1.224-3.71,0.047c-0.314,0.454-0.448,1.008-0.507,1.558
				c-0.079,0.051-0.148,0.161-0.12,0.25c0.033,0.104,0.06,0.21,0.082,0.318c-0.017,0.485-0.001,0.976,0.051,1.461
				c-0.026,0.282-0.065,0.56-0.111,0.827c-0.177,1.027-0.506,2.023-0.891,2.989c-0.777,1.95-1.798,3.816-2.971,5.555
				c-2.988,4.428-7.385,7.932-12.415,9.737c-5.243,1.882-10.973,2.031-16.441,1.228c-5.158-0.757-10.119-2.444-15.168-3.69
				c-0.559-0.138-1.121-0.271-1.683-0.398c-2.014-0.363-4.043-0.638-6.092-0.674c-1.665-0.029-3.351,0.106-4.997,0.361
				c-1.242,0.193-2.469,0.475-3.668,0.851c0.403,0.817,0.934,1.583,1.489,2.285c0.84,1.062,1.814,2.015,2.837,2.9
				c2.063,1.785,9.236,10.552,9.567,10.687c1.832,1.082,24.908,2.497,30.136,2.72c8.474,0.362,16.263-3.371,22.485-8.91
				c4.175-3.717,13.14-11.337,10.226-17.488C90.138,40.303,87.366,34.648,83.938,31.696z"/>
			<path style="opacity:0.4;fill:#D8D5BE;" d="M83.938,31.696c-1.028-0.885-2.831-1.224-3.71,0.047
				c-0.314,0.454-0.448,1.008-0.507,1.558c-0.079,0.051-0.148,0.161-0.12,0.25c0.033,0.104,0.06,0.21,0.082,0.318
				c-0.017,0.485-0.001,0.976,0.051,1.461c-0.026,0.282-0.065,0.56-0.111,0.827c-0.177,1.027-0.506,2.023-0.891,2.989
				c-0.777,1.95-1.798,3.816-2.971,5.555c-2.988,4.428-7.385,7.932-12.415,9.737c-5.243,1.882-10.973,2.031-16.441,1.228
				c-5.158-0.757-10.119-2.444-15.168-3.69c-0.559-0.138-1.121-0.271-1.683-0.398c-2.014-0.363-4.043-0.638-6.092-0.674
				c-1.665-0.029-3.351,0.106-4.997,0.361c-1.242,0.193-2.469,0.475-3.668,0.851c0.403,0.817,0.934,1.583,1.489,2.285
				c0.84,1.062,1.814,2.015,2.837,2.9c2.063,1.785,9.236,10.552,9.567,10.687c1.832,1.082,24.908,2.497,30.136,2.72
				c8.474,0.362,16.263-3.371,22.485-8.91c4.175-3.717,13.14-11.337,10.226-17.488C90.138,40.303,87.366,34.648,83.938,31.696z"/>
			<path style="opacity:0.4;fill:#D8D5BE;" d="M83.938,31.696c-1.028-0.885-2.831-1.224-3.71,0.047
				c-0.314,0.454-0.448,1.008-0.507,1.558c-0.079,0.051-0.148,0.161-0.12,0.25c0.033,0.104,0.06,0.21,0.082,0.318
				c-0.017,0.485-0.001,0.976,0.051,1.461c-0.026,0.282-0.065,0.56-0.111,0.827c-0.177,1.027-0.506,2.023-0.891,2.989
				c-0.777,1.95-1.798,3.816-2.971,5.555c-2.988,4.428-7.385,7.932-12.415,9.737c-5.243,1.882-10.973,2.031-16.441,1.228
				c-5.158-0.757-10.119-2.444-15.168-3.69c-0.559-0.138-1.121-0.271-1.683-0.398c-2.014-0.363-4.043-0.638-6.092-0.674
				c-1.665-0.029-3.351,0.106-4.997,0.361c-1.242,0.193-2.469,0.475-3.668,0.851c0.403,0.817,0.934,1.583,1.489,2.285
				c0.84,1.062,1.814,2.015,2.837,2.9c2.063,1.785,9.236,10.552,9.567,10.687c1.832,1.082,24.908,2.497,30.136,2.72
				c8.474,0.362,16.263-3.371,22.485-8.91c4.175-3.717,13.14-11.337,10.226-17.488C90.138,40.303,87.366,34.648,83.938,31.696z"/>
			<path style="opacity:0.4;fill:#D8D5BE;" d="M92.037,44.312c-1.899-4.009-4.671-9.664-8.099-12.616
				c-1.028-0.885-2.831-1.224-3.71,0.047c-0.314,0.454-0.448,1.007-0.507,1.558c-0.079,0.051-0.148,0.161-0.12,0.249
				c0.033,0.104,0.06,0.21,0.082,0.318c-0.017,0.485-0.001,0.976,0.051,1.461c-0.026,0.282-0.065,0.56-0.111,0.827
				c-0.177,1.026-0.506,2.023-0.891,2.989c-0.777,1.95-1.798,3.816-2.971,5.555c-0.402,0.595-0.83,1.172-1.281,1.732
				c-0.061,1.838,0.186,3.669,0.78,5.413c0.609,1.79,1.556,3.441,2.671,4.962c0.11,0.15-0.096,0.304-0.235,0.235
				c-1.097-0.551-2.169-1.187-3.035-2.044c0.769,1.286,1.837,2.371,3.057,3.264c0,0,0,0.001-0.001,0.001
				c0.012,0.009,0.024,0.017,0.035,0.026c0.154,0.119-0.052,0.383-0.208,0.269c-0.012-0.009-0.023-0.018-0.035-0.027v0
				c-1.245-0.963-2.593-1.782-3.989-2.506c0.591,1.626,2.063,2.788,3.438,3.753c0.076,0.053,0.111,0.149,0.062,0.234
				c-0.182,0.315-0.384,0.615-0.607,0.902c-2.047,2.646-5.411,4.105-8.509,5.1c-3.093,0.994-6.385,1.652-9.635,1.816
				c-2.487,0.125-5.001-0.213-7.446-0.637c-2.419-0.42-4.829-0.897-7.246-1.33c-4.042-0.724-8.151-1.213-12.263-1.175
				c-1.568,0.014-3.173,0.102-4.757,0.323c1.42,1.657,2.508,2.924,2.632,2.975c1.832,1.081,24.908,2.497,30.136,2.72
				c8.474,0.362,16.263-3.371,22.485-8.91C85.986,58.083,94.951,50.463,92.037,44.312z"/>
			<path style="fill:#66686A;" d="M64.154,63.713c-1.032-0.127-2.103-0.191-3.102-0.499c-0.18-0.056-0.108-0.293,0.041-0.329
				c0.558-0.133,1.132-0.205,1.678-0.381c-0.854-0.584-1.996-0.622-2.944-0.993c-0.138-0.054,1.941-0.758,2.85-1.153
				c-1.194-0.607-4.026-1.262-3.9-1.315c0.56-0.237,1.176-0.416,1.639-0.818c-0.467-0.137-0.926-0.304-1.398-0.423
				c-0.188-0.047-0.199-0.296-0.002-0.34c0.482-0.108,0.96-0.237,1.432-0.383c1.033-0.319,2.059-0.71,2.997-1.252
				c0.715-0.413,1.544-1.003,1.816-1.829c-0.175-0.049-0.354-0.083-0.534-0.109c-0.455,0.196-0.914,0.383-1.38,0.55
				c-5.243,1.882-10.973,2.031-16.441,1.228c-5.158-0.757-10.119-2.444-15.168-3.69c-0.559-0.138-1.121-0.271-1.683-0.398
				c-2.014-0.363-4.043-0.638-6.092-0.674c-1.665-0.029-3.351,0.106-4.997,0.361c-1.242,0.193-2.469,0.475-3.668,0.851
				c0.403,0.817,0.934,1.583,1.489,2.285c0.84,1.062,1.814,2.015,2.837,2.9c2.063,1.785,9.236,10.552,9.567,10.687
				c1.832,1.082,24.908,2.497,30.136,2.72c2.167,0.093,4.288-0.084,6.351-0.489c-1.523-0.413-4.855-1.307-4.674-1.364
				c1.146-0.36,2.433-0.17,3.542-0.642c-0.638-0.62-1.695-0.73-2.507-0.968c-0.182-0.054,2.297-0.649,3.422-0.823
				c1.09-0.168,2.212-0.44,3.095-1.13c-0.24-0.386-0.637-0.648-1.045-0.833C66.467,63.987,65.28,63.852,64.154,63.713z"/>
			<path style="fill:#66686A;" d="M32.148,52.637c5.368,1.236,10.649,3.094,16.179,3.458c1.503,0.099,3.019,0.114,4.528,0.03
				c-1.994-0.007-3.989-0.169-5.951-0.457c-5.158-0.757-10.119-2.444-15.168-3.69c-0.559-0.138-1.121-0.271-1.683-0.398
				c-2.014-0.363-4.043-0.638-6.092-0.674c-1.665-0.029-3.351,0.106-4.997,0.361c-1.242,0.193-2.469,0.475-3.668,0.851
				c0.084,0.171,0.177,0.338,0.272,0.505C20.811,50.458,26.8,51.405,32.148,52.637z"/>
			<path style="fill:#66686A;" d="M59.615,69.507c-2.786-0.662-5.6-1.207-8.432-1.625c-2.901-0.427-5.809-0.683-8.734-0.869
				c-1.522-0.097-3.048-0.195-4.573-0.203c-1.115-0.006-2.224,0.146-3.34,0.106c-0.489-0.018-0.983-0.071-1.444-0.241
				c-0.514-0.19-0.909-0.53-1.188-1.001c-0.436-0.737-0.591-1.591-0.813-2.417c-0.021,1.082-0.063,2.165-0.281,3.227
				c-0.04,0.196-0.294,0.19-0.34,0.002c-0.273-1.126-0.473-2.29-0.728-3.437c-0.347,1.355-0.873,2.672-1.51,3.91
				c0.536,0.613,0.891,1.004,0.958,1.032c1.832,1.082,24.908,2.497,30.136,2.72c1.452,0.062,2.883,0.001,4.29-0.167
				C62.289,70.173,60.956,69.825,59.615,69.507z"/>
			<path style="fill:#66686A;" d="M64.154,63.713c-1.032-0.127-2.103-0.191-3.102-0.499c-0.18-0.056-0.108-0.293,0.041-0.329
				c0.558-0.133,1.132-0.205,1.678-0.381c-0.053-0.036-0.11-0.065-0.165-0.097c-2.103,0.056-4.21-0.102-6.313-0.194
				c0.575,0.27,1.156,0.527,1.75,0.754c2.994,1.147,6.151,1.751,9.264,2.472c0.19,0.044,0.197,0.297,0.002,0.34
				c-0.788,0.175-1.583,0.316-2.383,0.424c-2.511,0.339-5.048,0.345-7.576,0.252c1.752,0.788,3.655,1.196,5.521,1.629
				c0.175,0.041,0.21,0.327,0.002,0.34c-1.139,0.069-2.281,0.073-3.422,0.102c0.607,0.088,1.215,0.18,1.823,0.264
				c1.076-0.26,2.249-0.138,3.273-0.573c-0.638-0.62-1.695-0.73-2.507-0.968c-0.182-0.054,2.297-0.649,3.422-0.823
				c1.09-0.168,2.212-0.44,3.095-1.13c-0.24-0.386-0.637-0.648-1.045-0.833C66.467,63.987,65.28,63.852,64.154,63.713z"/>
			<g>
				<g>
					<path style="fill:#66686A;" d="M22.448,50.928c-1.167,0.046-2.335,0.161-3.483,0.339c-1.601,0.249-3.18,0.642-4.703,1.2
						c-2.904,1.064-5.573,2.733-7.732,4.954c-0.53,0.546-1.022,1.124-1.482,1.725c-0.591,1.201-0.996,2.494-1.201,3.842
						c-0.413,2.724-0.054,5.534,0.807,8.138c0.418,1.262,0.956,2.484,1.597,3.649c0.347,0.431,0.716,0.843,1.106,1.232
						c1.826,1.467,3.968,2.54,6.316,2.828c0.729,0.089,1.453,0.098,2.168,0.037c0.203-0.038,0.405-0.076,0.607-0.117
						c0.054-0.011,0.1,0.001,0.137,0.026c1.851-0.282,3.627-1.008,5.251-1.976c0.087-0.092,0.174-0.184,0.257-0.278
						c0.069-0.078,0.161-0.068,0.225-0.02c2.788-1.776,5.1-4.307,6.664-7.217c0.116-0.217,0.227-0.437,0.335-0.659
						c0.426-2.052,0.556-4.16,0.315-6.24c-0.426-3.669-2.035-7.141-4.674-9.611C24.207,52.074,23.367,51.451,22.448,50.928z"/>
					<path style="fill:#66686A;" d="M4.944,61.383c0.758-2.06,1.266-2.868,2.809-4.422c1.77-1.784,5.348-3.292,7.662-4.278
						c2.449-1.043,5.066-1.39,7.707-1.344c-0.219-0.143-0.444-0.28-0.673-0.41c-1.167,0.046-2.335,0.161-3.483,0.339
						c-1.601,0.249-3.18,0.642-4.703,1.2c-2.904,1.064-5.573,2.733-7.732,4.954c-0.53,0.546-1.022,1.124-1.482,1.725
						c-0.591,1.201-0.996,2.494-1.201,3.842c-0.413,2.724-0.054,5.534,0.807,8.138c0.213,0.644,0.458,1.278,0.732,1.899
						C4.489,69.542,3.685,64.804,4.944,61.383z"/>
					<path style="fill:#66686A;" d="M27.81,67.742c-1.154,2.041-2.702,4.07-4.767,5.256c-0.06,0.035-0.164,0.006-0.202-0.051
						c-0.592-0.885-1.348-1.671-2.224-2.281c0.347,0.537,0.704,1.069,0.962,1.658c0.066,0.15-0.127,0.317-0.26,0.205
						c-1.175-0.992-2.459-1.82-3.968-2.194c-0.177-0.044-0.209-0.315-0.002-0.34c0.34-0.04,0.729-0.156,0.829-0.526
						c0.098-0.363-0.068-0.774-0.221-1.096c-0.388-0.818-1.013-1.554-1.684-2.154c-0.276-0.247-0.575-0.493-0.909-0.659
						c-0.476-0.236-1.118-0.218-1.627-0.113c-1.128,0.232-1.805,1.216-1.925,2.317c-0.13,1.188,0.317,2.404,1.153,3.251
						c0.102,0.103,0.001,0.25-0.111,0.277c-0.492,0.119-0.991,0.214-1.495,0.268c-0.863,0.091-1.768,0.073-2.592-0.225
						c-0.539-0.195-0.996-0.519-1.352-0.939c0.157,0.734,0.349,1.458,0.643,2.154c0.067,0.159-0.122,0.302-0.26,0.205
						c-0.654-0.456-1.105-1.07-1.453-1.75c0.216,0.705,0.478,1.398,0.712,2.097c0.049,0.147-0.119,0.325-0.26,0.205
						c-0.781-0.664-1.508-1.399-2.149-2.199c0.002,0.006,0.003,0.012,0.005,0.018c0.418,1.262,0.956,2.484,1.597,3.649
						c0.347,0.431,0.716,0.843,1.106,1.232c1.826,1.467,3.968,2.54,6.316,2.828c0.729,0.089,1.453,0.098,2.168,0.037
						c0.203-0.038,0.405-0.076,0.607-0.117c0.054-0.011,0.1,0.001,0.137,0.026c1.851-0.282,3.627-1.008,5.251-1.976
						c0.087-0.092,0.174-0.184,0.257-0.278c0.069-0.078,0.161-0.068,0.225-0.02c2.788-1.776,5.1-4.307,6.664-7.217
						c0.116-0.217,0.227-0.437,0.335-0.659c0.372-1.795,0.519-3.633,0.388-5.457C29.286,64.774,28.615,66.319,27.81,67.742z"/>
					<g>
						<path style="fill:#353738;" d="M20.354,72.469c-1.053-0.634-3.206-1.147-4.982-0.989c0.014,0.189,0.029,0.378,0.039,0.567
							c0.147,2.669,0.007,5.341-0.091,8.009c-0.049,1.341-0.09,2.683-0.077,4.026c0.013,1.382,0.121,2.763,0.238,4.14
							c0.464,5.484,1.441,10.884,2.652,16.248c1.165,5.164,2.546,10.288,4.392,15.255c1.876,5.047,4.269,9.876,7.021,14.501
							c2.219,3.73,4.757,7.368,7.857,10.433c0.129-0.33,0.037-0.855-0.097-1.08c-5.278-8.971-9.524-18.622-12.131-28.704
							c-2.365-9.134-4.557-19.069-4.1-28.556c0.161-3.333,0.624-6.677,1.416-9.932C23.084,74.3,21.26,73.015,20.354,72.469z"/>
						<path style="fill:#636466;" d="M20.354,72.469c-1-0.602-2.992-1.094-4.711-1.007c0.084,0.033,0.168,0.065,0.251,0.101
							c2.02,0.894,3.373,2.74,3.873,4.863c0.277,1.176,0.266,2.373,0.255,3.574c-0.012,1.389-0.062,2.777-0.12,4.165
							c-0.115,2.749-0.266,5.498-0.233,8.251c0.033,2.795,0.301,5.59,0.652,8.361c0.713,5.623,1.976,11.171,3.771,16.547
							c1.803,5.399,3.907,10.753,6.45,15.847c1.943,3.892,4.196,7.664,6.92,11.061c-0.007-0.255-0.074-0.513-0.158-0.654
							c-5.278-8.971-9.524-18.622-12.131-28.704c-2.365-9.134-4.557-19.069-4.1-28.556c0.161-3.333,0.624-6.677,1.416-9.932
							C23.084,74.3,21.26,73.015,20.354,72.469z"/>
						<path style="fill:#636466;" d="M16.479,77.459c0.017,9.536,0.275,18.446,3.116,27.655c0.149,0.485-0.289-8.519-0.808-12.802
							c-0.583-4.846-0.68-9.873-1.619-14.666C17.092,77.257,16.477,76.807,16.479,77.459z"/>
					</g>
				</g>
				<g>
					<path style="fill:#231F20;" d="M15.305,67.316c0.66,1,0.385,2.347-0.615,3.007c-1.001,0.661-2.348,0.384-3.008-0.615
						c-0.66-1-0.385-2.347,0.616-3.008C13.298,66.04,14.645,66.316,15.305,67.316z"/>
					<path style="fill:#515253;" d="M15.103,67.565c0.567,0.859,0.332,2.014-0.529,2.582c-0.86,0.568-2.016,0.332-2.584-0.527
						c-0.567-0.859-0.33-2.016,0.53-2.584C13.381,66.468,14.536,66.706,15.103,67.565z"/>
					<path style="fill:#191305;" d="M14.863,67.73c0.477,0.723,0.278,1.701-0.447,2.179c-0.727,0.48-1.704,0.279-2.181-0.444
						c-0.479-0.726-0.28-1.703,0.447-2.183C13.407,66.804,14.384,67.004,14.863,67.73z"/>
					<path style="fill:#FFFFFF;" d="M12.954,68.173c0.125,0.19,0.072,0.447-0.118,0.572c-0.19,0.126-0.446,0.073-0.572-0.117
						c-0.125-0.19-0.074-0.447,0.116-0.572C12.571,67.93,12.829,67.983,12.954,68.173z"/>
				</g>
			</g>
			<path style="fill:#66686A;" d="M71.425,66.719c-0.384-0.202-0.835-0.148-1.239-0.042c-0.26,0.068-0.512,0.158-0.758,0.262
				c-0.012,0.004-0.015,0.005-0.007,0.003c-0.004,0.002-0.008,0.003-0.012,0.005c-0.014,0.004-0.033,0.008-0.056,0.014
				c-0.036,0.013-0.066,0.029-0.101,0.048c-0.008,0.004-0.013,0.011-0.02,0.016c-0.08,0.037-0.16,0.075-0.24,0.115
				c-0.125,0.063-0.244,0.196-0.298,0.341c-0.002,0.003-0.005,0.004-0.007,0.007c-0.075,0.112-0.129,0.258-0.054,0.383
				c0.067,0.112,0.211,0.175,0.332,0.208c0.268,0.072,0.576,0.057,0.848,0.013c0.602-0.098,1.297-0.342,1.651-0.871
				C71.55,67.09,71.598,66.811,71.425,66.719z"/>
			<path style="fill:#66686A;" d="M71.873,65.41c-0.015-0.014-0.03-0.027-0.045-0.04c-0.019-0.007-0.037-0.014-0.056-0.022
				c-0.021-0.001-0.041-0.001-0.061-0.002c-0.035,0.004-0.066,0.015-0.094,0.034c-0.023,0.01-0.043,0.024-0.06,0.042
				c-0.032,0.024-0.058,0.054-0.078,0.09c-0.012,0.017-0.023,0.034-0.035,0.051c-0.019,0.028-0.031,0.058-0.037,0.09
				c-0.01,0.028-0.013,0.058-0.01,0.088c0.004,0.018,0.007,0.035,0.011,0.052c0.011,0.033,0.031,0.058,0.06,0.077
				c0.013,0.006,0.027,0.012,0.04,0.018c0.019,0.007,0.037,0.015,0.056,0.022c0.02,0.001,0.041,0.001,0.061,0.002
				c0.035-0.004,0.066-0.015,0.095-0.034c0.023-0.01,0.043-0.024,0.06-0.042c0.022-0.016,0.039-0.035,0.053-0.058
				c0.019-0.02,0.033-0.043,0.043-0.069c0.014-0.023,0.023-0.047,0.028-0.074c0.012-0.035,0.016-0.071,0.013-0.108
				c-0.004-0.021-0.009-0.043-0.013-0.064C71.892,65.446,71.883,65.428,71.873,65.41z"/>
			<path style="fill:#66686A;" d="M66.328,68.062C66.328,68.062,66.327,68.062,66.328,68.062c-0.044-0.026-0.09-0.035-0.139-0.028
				c-0.054,0.008-0.103,0.028-0.148,0.06c-0.006,0.003-0.064,0.055-0.069,0.06c-0.007,0.009-0.014,0.018-0.021,0.027
				c-0.016,0.006-0.034,0.008-0.049,0.018c-0.039,0.018-0.074,0.044-0.103,0.078c-0.034,0.034-0.06,0.074-0.078,0.117
				c-0.023,0.039-0.037,0.082-0.043,0.128c-0.001,0.027-0.002,0.055-0.004,0.082c0.003,0.05,0.019,0.096,0.049,0.137
				c0.017,0.016,0.034,0.031,0.052,0.047c0.042,0.025,0.087,0.034,0.136,0.027c0.023-0.001,0.045-0.003,0.067-0.008
				c0.034-0.008,0.07-0.016,0.103-0.029c0.033-0.013,0.071-0.036,0.098-0.052c0.008-0.005,0.015-0.01,0.022-0.015
				c0.027-0.023,0.062-0.048,0.086-0.078c0.047-0.057,0.092-0.114,0.113-0.186c0.01-0.032,0.025-0.076,0.027-0.114
				c0.009-0.054,0.005-0.108-0.012-0.16C66.399,68.127,66.37,68.089,66.328,68.062z"/>
			<path style="fill:#66686A;" d="M65.847,61.753c-0.471,0.046-0.967,0.176-1.388,0.396c-0.255,0.133-0.45,0.496-0.22,0.729
				c0.014,0.037,0.037,0.069,0.077,0.09c0.049,0.026,0.104,0.045,0.16,0.062c0.172,0.069,0.368,0.085,0.554,0.083
				c0.198,0.016,0.397,0.025,0.595,0.019c0.467-0.014,0.923-0.114,1.33-0.348c0.151-0.087,0.265-0.346,0.196-0.511
				C66.937,61.758,66.334,61.706,65.847,61.753z"/>
			<g>
				<polygon style="fill:#66686A;" points="65.14,60.248 65.14,60.25 65.142,60.246 				"/>
				<path style="fill:#66686A;" d="M65.643,60.041c-0.261-0.252-0.622-0.334-0.977-0.282c-0.346,0.051-0.705,0.236-0.898,0.538
					c-0.068,0.032-0.125,0.078-0.161,0.152c-0.035,0.072-0.065,0.204,0.002,0.27c0.035,0.034,0.067,0.061,0.103,0.084
					c0.014,0.017,0.032,0.034,0.052,0.049c0.068,0.049,0.146,0.068,0.225,0.062c0.03,0.009,0.058,0.022,0.089,0.029
					c0.188,0.045,0.385,0.061,0.579,0.054c0.429-0.016,0.855-0.225,1.01-0.648C65.697,60.264,65.718,60.113,65.643,60.041z"/>
				<path style="fill:#66686A;" d="M65.127,60.262c0,0.001,0,0.002,0,0.003c0.002-0.001,0.003-0.002,0.005-0.003
					c0.001-0.001,0.001-0.001,0.002-0.002c0.002-0.003,0.003-0.007,0.005-0.01C65.133,60.254,65.13,60.258,65.127,60.262z"/>
				<polygon style="fill:#66686A;" points="65.138,60.249 65.14,60.248 65.139,60.246 				"/>
			</g>
			<path style="fill:#66686A;" d="M65.168,58.38c-0.204,0.087-0.24,0.532,0.031,0.416C65.404,58.709,65.439,58.264,65.168,58.38z"/>
			<path style="fill:#66686A;" d="M67.917,57.59c0,0,0-0.001-0.001-0.001c-0.003-0.004-0.043-0.041-0.048-0.043
				c-0.001-0.001-0.002-0.001-0.003-0.002c-0.007-0.004-0.052-0.021-0.06-0.024c-0.001,0-0.002-0.001-0.003-0.001
				c-0.004-0.001-0.008-0.002-0.012-0.002c-0.012-0.001-0.024-0.001-0.036-0.002l-0.005,0c-0.012-0.001-0.02-0.001-0.035-0.001
				c-0.001,0-0.001,0-0.002,0c-0.001-0.001-0.002-0.002-0.003-0.002c-0.005-0.004-0.011-0.008-0.017-0.012
				c-0.025-0.016-0.052-0.023-0.081-0.021c-0.03-0.004-0.059,0.001-0.087,0.015c-0.019,0.011-0.039,0.021-0.058,0.032
				c-0.031,0.021-0.056,0.046-0.076,0.077c-0.017,0.019-0.031,0.04-0.04,0.064c-0.018,0.032-0.03,0.066-0.035,0.103l-0.003,0.066
				c0.002,0.03,0.015,0.055,0.028,0.08c0,0.004-0.001,0.007-0.001,0.01c0.001,0.011,0.008,0.019,0.011,0.03
				c0.001,0.004,0.002,0.009,0.002,0.013c0.002,0.009,0.004,0.025,0.008,0.037c0.001,0.002,0.001,0.003,0.002,0.005
				c0,0,0,0.001,0.001,0.001c0.001,0.002,0.013,0.025,0.021,0.04c0,0,0,0,0,0l0,0c0.003,0.005,0.007,0.013,0.007,0.014
				c0,0.001,0.001,0.002,0.001,0.003c0.001,0.002,0.002,0.003,0.003,0.004c0.007,0.007,0.026,0.024,0.024,0.021
				c0,0,0.016,0.016,0.024,0.022c0.002,0.001,0.003,0.002,0.005,0.003c0.001,0,0.002,0.001,0.003,0.001
				c0.008,0.004,0.048,0.019,0.056,0.022c0.001,0,0.001,0.001,0.002,0.001c0.005,0.002,0.011,0.003,0.017,0.004
				c0.003,0,0.007,0.001,0.01,0.001c0.024,0.001,0.049,0.002,0.073,0.002c0.005,0,0.009,0,0.014,0c0.002,0,0.005,0,0.007,0
				c0.005,0,0.061-0.015,0.066-0.017c0.021-0.012,0.043-0.023,0.064-0.035c0.001,0,0.001-0.001,0.002-0.001
				c0.023-0.019,0.045-0.039,0.067-0.059c0.003-0.002,0.005-0.005,0.007-0.007c0.001-0.001,0.002-0.002,0.003-0.003
				c0,0,0.001-0.001,0.001-0.001c0.005-0.005,0.048-0.062,0.052-0.068c0.001-0.002,0.002-0.003,0.003-0.005
				c0.005-0.009,0.035-0.068,0.038-0.078c0.005-0.013,0.011-0.041,0.011-0.04c0.004-0.015,0.008-0.026,0.01-0.04
				c0.001-0.009,0.004-0.067,0.003-0.076c0-0.003-0.013-0.066-0.014-0.068C67.946,57.643,67.921,57.595,67.917,57.59z"/>
			<g>
				<path style="fill:#F6F6F6;" d="M49.656,67.122c-0.093-0.113-0.236-0.172-0.377-0.2c-0.144-0.029-0.291-0.023-0.436-0.013
					c-0.081,0.006-0.17,0.064-0.205,0.138c-0.011,0.023-0.016,0.048-0.018,0.073c-0.022,0.039-0.03,0.093,0.015,0.118
					c0.125,0.069,0.273,0.097,0.413,0.12c0.142,0.023,0.287,0.037,0.431,0.029c0.068-0.003,0.132-0.048,0.168-0.103
					C49.677,67.238,49.695,67.169,49.656,67.122z"/>
				<path style="fill:#F6F6F6;" d="M54.372,62.675c-0.274,0.021-0.493,0.527-0.13,0.499C54.516,63.153,54.736,62.647,54.372,62.675z
					"/>
				<path style="fill:#F6F6F6;" d="M61.017,64.38c-0.105-0.056-0.235-0.067-0.357-0.069c-0.392-0.006-0.781-0.219-1.119,0.081
					c-0.037,0.033-0.07,0.068-0.098,0.107c-0.102,0.033-0.193,0.1-0.239,0.198c-0.224,0.478,0.973,0.481,1.213,0.454
					c0.241-0.027,1.046-0.378,0.679-0.715C61.072,64.413,61.046,64.395,61.017,64.38z"/>
				<path style="fill:#F6F6F6;" d="M53.9,60.439c-0.153,0.012-0.275,0.294-0.072,0.279C53.98,60.706,54.103,60.424,53.9,60.439z"/>
				<path style="fill:#F6F6F6;" d="M52.498,59.061c-0.236,0.018-0.425,0.455-0.112,0.431C52.623,59.474,52.812,59.037,52.498,59.061
					z"/>
				<path style="fill:#F6F6F6;" d="M58.048,58.688c-0.018-0.052-0.05-0.091-0.098-0.119c-0.138-0.112-0.308-0.192-0.483-0.226
					c-0.191-0.037-0.4-0.019-0.588,0.028c-0.087,0.022-0.164,0.073-0.229,0.136c-0.077,0.029-0.147,0.081-0.19,0.137
					c-0.045,0.06-0.089,0.136-0.084,0.214c0.005,0.074,0.034,0.121,0.093,0.167c0.039,0.03,0.08,0.056,0.122,0.081
					c0.061,0.055,0.103,0.085,0.19,0.107c0.015,0.004,0.029,0.001,0.043,0.003c0.317,0.115,0.677,0.113,0.972-0.062
					c0.115-0.068,0.218-0.168,0.251-0.303C58.065,58.797,58.065,58.743,58.048,58.688z"/>
				<path style="fill:#F6F6F6;" d="M50.569,60.468c-0.208,0.016-0.374,0.399-0.098,0.378C50.679,60.831,50.845,60.447,50.569,60.468
					z"/>
				<path style="fill:#F6F6F6;" d="M52.415,62.482c-0.262,0.02-0.472,0.505-0.124,0.478C52.553,62.94,52.763,62.455,52.415,62.482z"
					/>
				<path style="fill:#F6F6F6;" d="M55.994,65.976c-0.044-0.038-0.09-0.074-0.136-0.11c-0.008-0.011-0.013-0.024-0.025-0.031
					c-0.025-0.026-0.056-0.042-0.092-0.047c-0.003-0.001-0.007-0.002-0.011-0.002c-0.055-0.008-0.103-0.005-0.157,0.009
					c-0.056,0.014-0.112,0.049-0.158,0.085c-0.004,0.003-0.007,0.009-0.011,0.012c-0.001,0-0.003,0-0.004,0
					c-0.031,0.001-0.06,0.009-0.088,0.022c-0.032,0.011-0.06,0.027-0.086,0.05c-0.041,0.036-0.074,0.077-0.094,0.129
					c-0.015,0.04-0.027,0.091-0.01,0.132c0.021,0.05,0.058,0.08,0.111,0.094c0.058,0.016,0.118,0.029,0.177,0.043
					c0.003,0.001,0.007,0.002,0.01,0.003c0.006,0.002,0.011,0.004,0.016,0.006c0.001,0,0.003,0,0.004,0
					c0.009,0.003,0.019,0.006,0.027,0.008c0.052,0.015,0.105,0.029,0.157,0.045l0.002-0.006c0.011,0.002,0.02,0.008,0.03,0.008
					c0.035,0.005,0.069,0.002,0.103-0.01c0.064-0.021,0.119-0.055,0.167-0.103c0.043-0.043,0.084-0.098,0.097-0.159
					c0.003-0.022,0.006-0.043,0.008-0.065C56.034,66.047,56.021,66.009,55.994,65.976z"/>
				<path style="fill:#F6F6F6;" d="M58.625,66.656c-0.015-0.012-0.03-0.025-0.044-0.037c-0.027-0.016-0.056-0.024-0.087-0.023
					c-0.017-0.003-0.034,0-0.051,0.003c0.005-0.001,0.009-0.002,0.014-0.003c-0.023,0.004-0.037,0.003-0.067,0.011
					c0.001,0,0.001,0,0.002-0.001c-0.001,0-0.002,0.001-0.003,0.001c-0.021-0.008-0.041-0.017-0.064-0.017
					c-0.036-0.005-0.071-0.002-0.106,0.011c-0.04,0.011-0.076,0.028-0.108,0.054c-0.037,0.021-0.069,0.049-0.095,0.083
					c-0.015,0.022-0.029,0.044-0.044,0.066c-0.023,0.043-0.035,0.088-0.035,0.136c0.003,0.021,0.007,0.042,0.01,0.063
					c0.014,0.041,0.04,0.073,0.078,0.095c0.036,0.019,0.074,0.033,0.112,0.046c0.037,0.013,0.076,0.013,0.115,0.015
					c0.007,0,0.014,0,0.021-0.001c0.023-0.003,0.053-0.009,0.075-0.013c0.002,0,0.003-0.001,0.005-0.001
					c0.015-0.004,0.032-0.013,0.045-0.018c0.011-0.005,0.031-0.011,0.044-0.019c0.001-0.001,0.003-0.002,0.004-0.003
					c0.023-0.016,0.047-0.031,0.07-0.047c0.001-0.001,0.002-0.001,0.002-0.002c0.013-0.01,0.026-0.025,0.036-0.035
					c0.011-0.011,0.026-0.024,0.037-0.037c0.033-0.04,0.056-0.085,0.07-0.135c0.012-0.044,0.011-0.087-0.002-0.13
					C58.651,66.697,58.641,66.674,58.625,66.656z"/>
				<path style="fill:#F6F6F6;" d="M52.41,65.702c-0.308,0.024-0.555,0.594-0.146,0.563C52.573,66.242,52.82,65.671,52.41,65.702z"
					/>
				<path style="fill:#F6F6F6;" d="M46.702,63.725c-0.177-0.107-0.376-0.193-0.583-0.22c-0.259-0.035-0.509,0.006-0.75,0.104
					c-0.038,0.015-0.073,0.041-0.106,0.07c-0.132,0.02-0.274,0.137-0.269,0.277c0.003,0.091,0.055,0.146,0.123,0.183
					c0.019,0.042,0.045,0.078,0.09,0.099c0.056,0.025,0.116,0.052,0.176,0.064c0.063,0.012,0.133,0.01,0.197,0.01
					c0.056,0,0.11-0.01,0.163-0.022c0.221,0.031,0.444,0.039,0.663,0.004c0.144-0.023,0.292-0.102,0.357-0.241
					C46.813,63.942,46.821,63.797,46.702,63.725z"/>
				<path style="fill:#F6F6F6;" d="M47.618,60.588c-0.326,0.025-0.586,0.627-0.154,0.594C47.789,61.157,48.05,60.555,47.618,60.588z
					"/>
			</g>
		</g>
		<path style="fill:#EBEBEC;" d="M222.87,38.626c-4.703-1.184-9.567-1.551-14.392-1.857c-0.12-0.008-0.24-0.016-0.359-0.024
			c0.979,0.021,1.959,0.041,2.939,0.043c2.477,0.005,4.988-0.14,7.351-0.937c0.204-0.069,0.463-0.531,0.122-0.597
			c-5.812-1.108-11.714-1.467-17.601-1.963c1.274-0.071,2.546-0.162,3.819-0.256c1.508-0.111,3.023-0.188,4.525-0.363
			c1.589-0.185,3.223-0.499,4.605-1.345c0.194-0.119,0.314-0.472,0.031-0.563c-2.599-0.838-5.393-0.629-8.065-1.056
			c-2.843-0.454-5.629-1.205-8.357-2.118c-2.755-0.922-5.452-2.004-8.143-3.095c-2.756-1.118-5.45-2.321-8.1-3.673
			c-1.442-0.736-2.871-1.488-4.3-2.249c-0.47-0.251-0.943-0.489-1.424-0.703c-2.651-1.767-5.404-3.382-8.203-4.901
			c-4.027-2.187-8.191-4.119-12.485-5.72c-28.766-10.728-70.247-3.65-78.625,30.614c-1.604,6.562-1.433,13.275,4.148,17.842
			c3.349,2.74,7.539,4.226,11.714,5.361c23.174,6.298,48.5,3.873,71.636-1.391c4.082-0.929,8.678-2.973,12.722-3.552
			c1.719-0.246,3.438-0.492,5.152-0.775c3.193-0.528,6.357-1.201,9.504-1.954c2.628-0.628,5.228-1.361,7.892-1.824
			c1.228-0.214,2.463-0.427,3.659-0.783c1.066-0.317,2.13-0.73,2.961-1.493c0.178-0.164,0.189-0.456-0.056-0.549
			c-1.511-0.577-3.254-0.161-4.822-0.147c-2.133,0.019-4.263,0.051-6.395,0.141c-1.335,0.056-2.669,0.153-4.004,0.222
			c2.047-0.307,4.089-0.648,6.127-1.008c2.44-0.431,4.891-0.791,7.335-1.196c2.758-0.457,5.5-1.012,8.155-1.9
			c0.283-0.095,0.482-0.669,0.042-0.658c-3.914,0.099-7.829,0.06-11.743,0.049c-1.134-0.003-2.267,0-3.399-0.017
			c0.269-0.018,0.539-0.033,0.809-0.052c3.111-0.219,6.22-0.519,9.298-1.032c3.091-0.514,6.148-1.211,9.206-1.893
			c1.29-0.288,2.59-0.531,3.879-0.82c0.975-0.219,2.207-0.481,2.896-1.272C223.056,39.009,223.145,38.695,222.87,38.626z"/>
		<path style="fill:#F6F6F6;" d="M222.87,38.626c-4.703-1.184-9.567-1.551-14.392-1.857c-0.12-0.008-0.24-0.016-0.359-0.024
			c0.979,0.021,1.959,0.041,2.939,0.043c2.477,0.005,4.988-0.14,7.351-0.937c0.204-0.069,0.463-0.531,0.122-0.597
			c-5.812-1.108-11.714-1.467-17.601-1.963c1.274-0.071,2.546-0.162,3.819-0.256c1.508-0.111,3.023-0.188,4.525-0.363
			c1.589-0.185,3.223-0.499,4.605-1.345c0.194-0.119,0.314-0.472,0.031-0.563c-2.599-0.838-5.393-0.629-8.065-1.056
			c-2.843-0.454-5.629-1.205-8.357-2.118c-2.755-0.922-5.452-2.004-8.143-3.095c-2.756-1.118-5.45-2.321-8.1-3.673
			c-1.442-0.736-2.871-1.488-4.3-2.249c-0.47-0.251-0.943-0.489-1.424-0.703c-2.651-1.767-5.404-3.382-8.203-4.901
			c-4.027-2.187-8.191-4.119-12.485-5.72c-28.766-10.728-70.247-3.65-78.625,30.614c-1.604,6.562-1.433,13.275,4.148,17.842
			c3.349,2.74,7.539,4.226,11.714,5.361c23.174,6.298,48.5,3.873,71.636-1.391c4.082-0.929,8.678-2.973,12.722-3.552
			c1.719-0.246,3.438-0.492,5.152-0.775c3.193-0.528,6.357-1.201,9.504-1.954c2.628-0.628,5.228-1.361,7.892-1.824
			c1.228-0.214,2.463-0.427,3.659-0.783c1.066-0.317,2.13-0.73,2.961-1.493c0.178-0.164,0.189-0.456-0.056-0.549
			c-1.511-0.577-3.254-0.161-4.822-0.147c-2.133,0.019-4.263,0.051-6.395,0.141c-1.335,0.056-2.669,0.153-4.004,0.222
			c2.047-0.307,4.089-0.648,6.127-1.008c2.44-0.431,4.891-0.791,7.335-1.196c2.758-0.457,5.5-1.012,8.155-1.9
			c0.283-0.095,0.482-0.669,0.042-0.658c-3.914,0.099-7.829,0.06-11.743,0.049c-1.134-0.003-2.267,0-3.399-0.017
			c0.269-0.018,0.539-0.033,0.809-0.052c3.111-0.219,6.22-0.519,9.298-1.032c3.091-0.514,6.148-1.211,9.206-1.893
			c1.29-0.288,2.59-0.531,3.879-0.82c0.975-0.219,2.207-0.481,2.896-1.272C223.056,39.009,223.145,38.695,222.87,38.626z"/>
		<path style="opacity:0.4;fill:#D8D5BE;" d="M222.87,38.626c-4.703-1.184-9.567-1.551-14.392-1.857
			c-0.12-0.008-0.24-0.016-0.359-0.024c0.979,0.021,1.959,0.041,2.939,0.043c2.477,0.005,4.988-0.14,7.351-0.937
			c0.204-0.069,0.463-0.531,0.122-0.597c-5.812-1.108-11.714-1.467-17.601-1.963c1.274-0.071,2.546-0.162,3.819-0.256
			c1.508-0.111,3.023-0.188,4.525-0.363c1.589-0.185,3.223-0.499,4.605-1.345c0.194-0.119,0.314-0.472,0.031-0.563
			c-2.599-0.838-5.393-0.629-8.065-1.056c-2.843-0.454-5.629-1.205-8.357-2.118c-2.755-0.922-5.452-2.004-8.143-3.095
			c-2.756-1.118-5.45-2.321-8.1-3.673c-1.442-0.736-2.871-1.488-4.3-2.249c-0.47-0.251-0.943-0.489-1.424-0.703
			c-2.651-1.767-5.404-3.382-8.203-4.901c-4.027-2.187-8.191-4.119-12.485-5.72c-28.766-10.728-70.247-3.65-78.625,30.614
			c-1.604,6.562-1.433,13.275,4.148,17.842c3.349,2.74,7.539,4.226,11.714,5.361c23.174,6.298,48.5,3.873,71.636-1.391
			c4.082-0.929,8.678-2.973,12.722-3.552c1.719-0.246,3.438-0.492,5.152-0.775c3.193-0.528,6.357-1.201,9.504-1.954
			c2.628-0.628,5.228-1.361,7.892-1.824c1.228-0.214,2.463-0.427,3.659-0.783c1.066-0.317,2.13-0.73,2.961-1.493
			c0.178-0.164,0.189-0.456-0.056-0.549c-1.511-0.577-3.254-0.161-4.822-0.147c-2.133,0.019-4.263,0.051-6.395,0.141
			c-1.335,0.056-2.669,0.153-4.004,0.222c2.047-0.307,4.089-0.648,6.127-1.008c2.44-0.431,4.891-0.791,7.335-1.196
			c2.758-0.457,5.5-1.012,8.155-1.9c0.283-0.095,0.482-0.669,0.042-0.658c-3.914,0.099-7.829,0.06-11.743,0.049
			c-1.134-0.003-2.267,0-3.399-0.017c0.269-0.018,0.539-0.033,0.809-0.052c3.111-0.219,6.22-0.519,9.298-1.032
			c3.091-0.514,6.148-1.211,9.206-1.893c1.29-0.288,2.59-0.531,3.879-0.82c0.975-0.219,2.207-0.481,2.896-1.272
			C223.056,39.009,223.145,38.695,222.87,38.626z"/>
		<path style="opacity:0.4;fill:#D8D5BE;" d="M79.777,28.33c1.465-2.934,3.471-5.579,5.733-7.947
			c4.238-4.437,9.678-7.457,15.365-9.639c2.971-1.14,6.021-2.061,9.09-2.893c3.203-0.867,6.41-1.584,9.71-1.964
			c6.513-0.749,13.131-0.538,19.665-0.21c5.377,0.269,11.174,0.759,16.049,3.234c0.161,0.082,0.072,0.311-0.087,0.319
			c-5.698,0.312-11.396-0.117-17.095-0.13c-3.931-0.009-7.828,0.309-11.726,0.783c-3.353,0.408-6.695,0.942-9.982,1.725
			c-6.009,1.433-12.799,3.778-16.587,8.982c6.69-1.872,13.224-4.197,20.106-5.309c12.636-2.042,25.83-2.135,38.416,0.345
			c6.155,1.213,12.126,3.164,18.16,4.85c2.563,0.716,5.168,1.502,7.816,1.874c-1.062-0.492-2.118-0.997-3.165-1.531
			c-1.442-0.736-2.871-1.488-4.3-2.249c-0.47-0.251-0.943-0.489-1.424-0.703c-2.651-1.767-5.404-3.382-8.203-4.901
			c-4.027-2.187-8.191-4.119-12.485-5.72C127.805-2.833,89.55,2.81,78.08,31.955C78.643,30.743,79.184,29.518,79.777,28.33z"/>
		<g>
			<g>
				<path style="opacity:0.4;fill:#D8D5BE;" d="M222.928,38.651c-1.743,0.351-3.474,0.783-5.215,1.117
					c-2.872,0.55-5.813,0.846-8.719,1.151c-3.047,0.319-6.106,0.544-9.17,0.607c-2.99,0.062-5.976,0.12-8.965,0.218
					c-2.835,0.093-5.68,0.126-8.506-0.152c1.24,1.072,2.727,1.812,4.284,2.318c3.357,1.093,6.973,1.255,10.477,1.256
					c3.256,0.001,6.512-0.24,9.767-0.174c0.196,0.004,0.229,0.279,0.046,0.337c-2.168,0.674-4.373,1.217-6.6,1.659
					c-7.748,1.536-15.667,1.902-23.541,2.253c1.207,0.412,2.461,0.673,3.728,0.824c5.704,0.679,11.409-0.512,17.114-0.522
					c0.205,0,0.219,0.272,0.046,0.337c-2.022,0.759-4.117,1.292-6.237,1.696c-3.805,0.725-7.676,1.117-11.512,1.642
					c-3.671,0.503-7.433,0.852-11.144,0.652c1.437,0.652,3.11,0.554,4.621,0.989c0.168,0.049,0.157,0.278,0,0.331
					c-2.143,0.722-4.373,1.169-6.618,1.426c-4.395,0.504-8.925,0.3-13.231-0.737c-3.991-0.961-7.953-2.713-10.81-5.739
					c-0.11-0.117-0.022-0.274,0.121-0.293c2.189-0.28,4.337-0.823,6.429-1.519c3.176-1.057,6.266-2.421,9.208-4.016
					c1.162-0.63,2.32-1.305,3.342-2.148c0.844-0.697,1.75-1.604,1.915-2.735c-1.457,0.062-2.887,0.353-4.292,0.735
					c-2.581,0.701-5.089,1.685-7.724,2.181c-0.156,0.029-0.312,0.056-0.469,0.081c-2.665,0.527-5.406,0.754-8.088,0.967
					c-9.521,0.754-18.992,2.083-28.56,2.11c-4.66,0.014-9.353-0.032-13.962-0.786c-2.206-0.361-4.508-0.814-6.546-1.757
					c-1.861-0.861-3.675-2.035-5.713-2.425c1.408,2.899,3.257,5.565,5.562,7.826c3.967,3.892,9.016,6.391,14.233,8.157
					c5.436,1.839,11.077,2.966,16.659,4.258c0.163,0.038,0.164,0.294,0,0.331c-1.472,0.328-2.977,0.471-4.485,0.474
					c-5.317,0.012-10.464-1.513-15.686-2.319c2.167,1.256,4.596,1.991,6.862,3.049c0.162,0.076,0.072,0.316-0.087,0.319
					c-1.519,0.028-3.035-0.113-4.53-0.384c-5.04-0.914-9.746-3.156-14.227-5.587c1.366,1.282,2.936,2.333,4.583,3.225
					c0.175,0.095,0.052,0.36-0.132,0.313c-5.08-1.277-9.963-3.388-14.033-6.706c1.499,2.109,3.543,3.81,5.821,5.027
					c0.171,0.091,0.052,0.377-0.132,0.313c-2.006-0.695-3.935-1.622-5.665-2.859c-2.737-1.956-4.858-4.627-6.18-7.717
					c-0.765-1.788-1.264-3.668-1.564-5.583c-0.391,4.908,0.737,9.582,4.953,13.031c3.349,2.74,7.538,4.226,11.714,5.361
					c23.174,6.298,48.5,3.873,71.636-1.391c4.082-0.929,8.678-2.973,12.722-3.552c1.719-0.246,3.438-0.492,5.152-0.775
					c3.193-0.528,6.357-1.201,9.504-1.954c2.628-0.628,5.228-1.361,7.892-1.824c1.228-0.214,2.463-0.427,3.659-0.783
					c1.066-0.317,2.13-0.73,2.961-1.493c0.178-0.164,0.189-0.456-0.056-0.549c-1.511-0.577-3.254-0.161-4.822-0.147
					c-2.133,0.019-4.263,0.051-6.395,0.141c-1.335,0.056-2.669,0.153-4.004,0.222c2.047-0.307,4.089-0.648,6.127-1.008
					c2.44-0.431,4.891-0.791,7.335-1.196c2.758-0.457,5.5-1.012,8.155-1.9c0.283-0.095,0.482-0.669,0.042-0.658
					c-3.914,0.099-7.829,0.06-11.743,0.049c-1.134-0.003-2.267,0-3.399-0.017c0.269-0.018,0.539-0.033,0.809-0.052
					c3.111-0.219,6.22-0.519,9.298-1.032c3.091-0.514,6.148-1.211,9.206-1.893c1.29-0.288,2.59-0.531,3.879-0.82
					c0.975-0.219,2.207-0.481,2.896-1.272C223.045,39.022,223.127,38.749,222.928,38.651z"/>
				<path style="fill:#545658;" d="M241.056,29.501c-3.676,0.196-7.335,0.051-10.988-0.251c0.055-0.01,0.111-0.02,0.167-0.03
					c0.227-0.042,0.453-0.088,0.679-0.134c0.532,0.041,1.065,0.075,1.597,0.101c2.304,0.111,7.226-0.568,6.962-0.55
					c-2.235,0.155-4.475,0.16-6.711,0.023c1.528-0.393,4.921-2.172,4.513-2.127c-1.415,0.156-2.841,0.143-4.262,0.196
					c-1.48,0.055-2.943,0.283-4.404,0.51c-0.918,0.143-1.837,0.3-2.757,0.454c0.9-0.292,1.79-0.617,2.702-0.877
					c1.209-0.345,3.836-1.868,3.589-1.803c-0.184,0.049-0.366,0.107-0.547,0.168c0.034-0.12-0.005-0.245-0.16-0.187
					c-3.402,1.28-6.982,1.723-10.578,1.999c1.056-0.28,2.102-0.592,3.135-0.947c0.79-0.272,1.58-0.565,2.341-0.909
					c0.832-0.376,1.619-0.83,2.441-1.223c0.06-0.029,0.069-0.163-0.013-0.126c-0.673,0.306-1.399,0.519-2.1,0.754
					c-0.706,0.237-1.413,0.476-2.124,0.696c-1.424,0.44-2.86,0.831-4.31,1.175c-1.621,0.384-3.256,0.701-4.898,0.983
					c-1.093,0.085-2.186,0.17-3.279,0.244c-0.637-0.014-1.275-0.028-1.912-0.046c1.247-0.109,2.478-0.289,3.718-0.553
					c0.126-0.027,0.204-0.298,0.033-0.275c-1.565,0.215-3.185,0.191-4.763,0.188c-1.003-0.002-2.007-0.015-3.011-0.033
					c-2.786,0.12-5.578,0.066-8.364-0.025c-2.86-0.094-5.721-0.216-8.583-0.23c0.187,0.057,0.374,0.116,0.562,0.169
					c0.778,0.453,1.453,1.066,2.147,1.645c0.159,0.178,0.341,0.332,0.521,0.5c0.257,0.24,0.502,0.492,0.746,0.744
					c0.496,0.511,0.997,1.018,1.492,1.529c1.08,1.116,2.054,2.327,2.973,3.577c0.91,1.238,1.735,2.54,2.486,3.881
					c0.73,1.305,1.452,2.624,1.96,4.034c0.072,0.199,0.317-0.053,0.273-0.205c-0.405-1.408-0.87-2.795-1.497-4.119
					c-0.467-1.057-0.912-2.123-1.447-3.149c0.058,0.038,0.117,0.076,0.175,0.114c0.467,0.584,0.894,1.2,1.273,1.842
					c0.638,1.081,1.332,2.144,1.841,3.293c0.507,1.145,0.81,2.372,1.234,3.548c0.054,0.151,0.245-0.04,0.209-0.157
					c-0.381-1.226-0.56-2.506-1.022-3.708c-0.454-1.182-1.092-2.287-1.7-3.394c-0.087-0.159-0.181-0.313-0.273-0.469
					c0.051,0.03,0.101,0.06,0.152,0.09c0.246,0.311,0.484,0.63,0.709,0.961c0.951,1.4,1.667,2.956,2.304,4.519
					c0.657,1.612,1.18,3.294,1.545,4.996c0.029,0.135,0.188,0.023,0.176-0.078c-0.249-2.069-0.809-4.074-1.582-6
					c0.11,0.181,0.222,0.362,0.33,0.544c0.65,1.09,1.28,2.193,1.814,3.345c0.59,1.273,1.099,2.659,1.136,4.076
					c0.004,0.138,0.187,0.04,0.192-0.057c0.151-2.524-1.096-4.946-2.268-7.101c-0.233-0.428-0.472-0.853-0.715-1.276
					c1.252,1.684,2.338,3.492,3.227,5.394c0.634,1.354,1.16,2.757,1.556,4.199c0.073,0.265,0.373,0.053,0.458-0.066
					c0.46-0.648,0.244-1.593,0.062-2.298c-0.214-0.83-0.534-1.633-0.844-2.432c-0.22-0.566-0.46-1.129-0.71-1.689
					c1.168,1.478,2.275,3.005,3.333,4.562c0.813,1.197,1.624,2.397,2.387,3.627c0.092,0.149,0.301-0.119,0.223-0.253
					c-0.953-1.626-1.918-3.247-2.932-4.833c1.292,1.589,2.527,3.225,3.87,4.774c0.083,0.095,0.228-0.092,0.157-0.178
					c-1.73-2.098-3.176-4.413-4.958-6.472c-0.425-0.491-0.867-0.968-1.318-1.436c-0.333-0.46-0.671-0.917-1.02-1.366
					c0.924,0.991,1.83,1.997,2.778,2.967c1.084,1.109,4.586,5.429,5.706,5.722c0.183,0.048-0.681-3.264-1.872-5.756
					c0.124,0.147,0.248,0.292,0.368,0.442c1.508,1.901,2.805,3.976,4.23,5.94c0.079,0.108,0.232-0.093,0.167-0.19
					c-1.378-2.053-2.614-4.228-4.099-6.205c-0.293-0.39-0.604-0.767-0.922-1.137c0.609,0.524,1.215,1.05,1.815,1.577
					c1.222,1.073,2.42,2.174,3.589,3.305c0.258,0.249-0.343-2.843-1.126-3.836c-0.912-1.157-1.973-2.189-3.039-3.201
					c-0.834-0.792-1.658-1.598-2.504-2.378c0.158,0.116,0.321,0.229,0.486,0.337c2.073,1.604,3.895,3.486,5.764,5.322
					c1.154,1.134,2.378,2.162,3.636,3.176c0.103,0.083,0.244-0.155,0.139-0.241c-1.168-0.957-2.208-2.08-3.27-3.151
					c-1.021-1.031-2.024-2.08-3.059-3.097c-0.116-0.114-0.234-0.226-0.351-0.339c0.602,0.325,1.215,0.623,1.842,0.91
					c0.156,0.071,0.309,0.147,0.463,0.223c0.248,0.195,0.498,0.387,0.744,0.583c1.484,1.185,4.871,3.521,4.709,3.267
					c-1.289-2.012-2.865-3.885-4.64-5.55c1.357,0.894,2.694,1.819,4.018,2.764c1.305,0.932,2.611,1.863,3.955,2.738
					c0.243,0.159-2.726-4.213-4.679-5.659c1.545,0.845,3.085,1.697,4.639,2.526c0.245,0.131-2.53-3.651-3.248-4.14
					c2.269,1.003,4.615,1.837,7.015,2.46c1.498,0.389,3.012,0.712,4.533,0.996c0.114,0.021,0.209-0.206,0.079-0.235
					c-4.114-0.918-8.209-2.278-12.029-4.126c2.627,0.745,12.599,1.273,12.36,1.187c-1.306-0.471-2.63-0.743-3.973-1.082
					c-1.311-0.331-2.598-0.805-3.889-1.21c-0.764-0.24-1.528-0.491-2.285-0.759c2.173,0.232,4.384,0.282,6.512,0.466
					c1.439,0.125,2.903,0.237,4.335-0.02c0.216-0.039,0.454-0.551,0.133-0.579c-1.833-0.16-3.643-0.712-5.4-1.304
					c1.497,0.171,3.002,0.271,4.505,0.324c1.587,0.056,5.124-0.262,4.898-0.276c-2.784-0.165-5.574-0.358-8.341-0.707
					c-0.719-0.091-1.439-0.191-2.158-0.306c0.246,0.007,0.491,0.022,0.736,0.027c1.494,0.035,2.989,0.056,4.484,0.075
					c1.479,0.019,4.837-0.417,4.561-0.482c-0.763-0.18-1.509-0.445-2.267-0.653c-0.738-0.202-1.48-0.388-2.223-0.571
					c-0.367-0.09-0.734-0.185-1.101-0.279c1.946,0.117,6.224-0.213,5.989-0.226c-2.509-0.147-5.02-0.25-7.519-0.525
					c-0.082-0.009-0.165-0.02-0.247-0.03c0.973-0.121,1.947-0.235,2.926-0.315C237.859,30.537,241.427,29.481,241.056,29.501z"/>
				<g>
					<g>
						<path style="fill:#F6F6F6;" d="M214.978,35.409c-0.979-0.455-2.026-0.54-3.068-0.767c-1.204-0.263-2.383-0.643-3.566-0.983
							c-0.157-0.045-0.315-0.087-0.473-0.13c0.483-0.007,0.967-0.021,1.451-0.058c1.314-0.1,3.107-0.243,4.016-1.344
							c0.089-0.107,0.141-0.25,0.018-0.355c-1.09-0.927-2.749-1.11-4.112-1.308c-1.893-0.275-3.761-0.761-5.635-1.149
							c-2.094-0.433-4.165-0.959-6.247-1.445c-0.872-0.204-1.744-0.411-2.614-0.622c-6.37-3.77-13.089-6.982-19.939-9.773
							c-6.955-2.834-14.179-5.117-21.583-6.425c-7.436-1.314-15.028-1.746-22.555-1.065c-7.571,0.685-15.098,2.512-22.028,5.671
							c-2.921,1.332-5.779,2.899-8.512,4.584c-2.542,1.568-5.135,3.424-6.836,5.926c-0.105,0.155-0.196,0.318-0.293,0.478
							c-0.904,0.138-1.802,0.308-2.684,0.526c-1.872,0.463-3.755,1.178-5.215,2.472c-1.469,1.302-2.204,3.151-2.189,5.1
							c0.023,2.96,1.605,5.546,3.53,7.685c1,1.111,2.098,2.132,3.219,3.118c1.174,1.032,2.356,2.054,3.627,2.966
							c2.809,2.015,5.897,3.61,9.043,5.027c3.198,1.44,6.481,2.825,9.861,3.778c3.513,0.991,7.106,1.502,10.711,2.019
							c3.236,0.464,6.526,0.944,9.797,0.569c0.422-0.048,0.839-0.133,1.252-0.237c4.647,0.732,9.368,1.003,14.054,0.591
							c3.494-0.307,7.128-0.917,10.311-2.465c1.393-0.171,2.779-0.435,4.15-0.813c2.208-0.607,4.474-1.45,6.27-2.906
							c0.153-0.03,0.306-0.059,0.459-0.091c2.288-0.493,4.519-1.247,6.683-2.134c2.267-0.93,4.445-2.032,6.581-3.227
							c2.214-0.587,4.395-1.296,6.558-2.055c1.77-0.62,3.557-1.235,5.258-2.031c0.056-0.026,0.114-0.062,0.168-0.103
							c0.19-0.019,0.38-0.034,0.571-0.056c2.829-0.333,5.626-0.915,8.331-1.81c2.248-0.744,4.357-1.796,6.474-2.845
							c1.043-0.517,2.086-1.061,3.057-1.705c0.82-0.545,1.691-1.207,2.15-2.102C215.101,35.78,215.174,35.5,214.978,35.409z"/>
						<path style="opacity:0.4;fill:#D8D5BE;" d="M175.851,30.484c-0.894-0.298-1.789-0.577-2.707-0.789
							c-0.903-0.208-1.814-0.375-2.729-0.521c-0.744-0.119-1.491-0.225-2.24-0.33c0.579,0.261,1.159,0.522,1.74,0.779
							c1.795,0.794,3.611,1.512,5.467,2.152c3.533,1.22,7.126,2.286,10.775,3.102c-1.574-0.834-3.181-1.604-4.817-2.307
							C179.54,31.798,177.708,31.104,175.851,30.484z"/>
						<path style="opacity:0.4;fill:#D8D5BE;" d="M117.142,13.476c11.049-2.238,22.622-1.095,33.583,1.139
							c10.202,2.079,20.525,5.046,29.544,10.377c0.196,0.116,0.024,0.38-0.173,0.296c-2.122-0.9-4.33-1.562-6.56-2.136
							c-1.087-0.28-2.18-0.541-3.271-0.804c-0.474-0.115-0.949-0.231-1.422-0.348c4.005,1.669,7.989,3.387,11.991,5.064
							c8.091,3.39,16.292,6.823,24.962,8.408c2.713,0.496,5.493,0.818,8.275,0.97c0.292-0.124,0.585-0.244,0.873-0.376
							c0.029-0.049,0.061-0.097,0.087-0.148c0.07-0.137,0.144-0.417-0.052-0.508c-0.979-0.455-2.026-0.54-3.068-0.767
							c-1.204-0.263-2.383-0.643-3.566-0.983c-0.157-0.045-0.315-0.087-0.473-0.13c0.483-0.007,0.967-0.021,1.451-0.058
							c1.314-0.1,3.107-0.243,4.016-1.344c0.089-0.107,0.141-0.25,0.018-0.355c-1.089-0.927-2.749-1.11-4.111-1.308
							c-1.893-0.275-3.761-0.761-5.635-1.149c-2.094-0.433-4.165-0.959-6.247-1.445c-0.872-0.204-1.744-0.411-2.614-0.622
							c-6.37-3.77-13.089-6.982-19.939-9.773c-6.955-2.834-14.179-5.117-21.583-6.425c-7.436-1.314-15.028-1.746-22.555-1.065
							c-7.571,0.685-15.098,2.512-22.028,5.671c-0.882,0.402-1.757,0.828-2.625,1.269C109.632,15.488,113.32,14.251,117.142,13.476z
							"/>
						<path style="opacity:0.4;fill:#D8D5BE;" d="M214.18,36.777c-3.99,1.682-8.256,2.662-12.55,3.154
							c-4.509,0.517-9.11,0.51-13.61-0.101c-5.617-0.763-11.189-2.381-16.21-5.026c-2.359-1.243-4.659-2.6-7.068-3.748
							c-1.988-0.948-4.08-1.76-6.261-2.108c1.301,0.556,2.585,1.152,3.852,1.782c5.915,2.939,11.473,6.534,17.329,9.584
							c0.172,0.089,0.051,0.379-0.132,0.313c-1.397-0.5-2.786-1.02-4.166-1.565c-4.357-1.721-8.608-3.692-12.754-5.871
							c2.733,2.474,5.715,4.706,9.012,6.365c0.173,0.087,0.049,0.381-0.132,0.313c-1.992-0.742-3.913-1.653-5.834-2.559
							c-1.772-0.836-3.551-1.667-5.395-2.335c-1.612-0.584-3.264-1.026-4.93-1.43c-0.172-0.042-0.344-0.083-0.517-0.125
							c2.889,1.458,5.781,2.911,8.634,4.44c3.579,1.917,7.095,3.956,10.448,6.247c0.157,0.107,0.062,0.366-0.132,0.313
							c-2.262-0.612-4.471-1.4-6.646-2.267c-1.882-0.75-3.752-1.542-5.596-2.382c-1.658-0.756-3.269-1.611-4.894-2.432
							c-3.053-1.543-6.299-3.146-9.751-3.487c1.193,1.01,2.487,1.893,3.835,2.682c2.752,1.612,5.686,2.883,8.564,4.249
							c2.833,1.344,5.648,2.783,8.132,4.716c0.124,0.097,0.012,0.29-0.121,0.293c-1.384,0.031-2.764-0.194-4.099-0.546
							c-2.665-0.702-5.193-1.885-7.62-3.173c-1.591-0.844-3.143-1.756-4.689-2.678c0.677,0.518,1.369,1.016,2.076,1.493
							c4.689,3.165,9.893,5.437,15.025,7.769c0.133,0.061,0.097,0.285-0.041,0.313c-2.556,0.519-5.179,0.533-7.752,0.126
							c-4.681-0.74-9.075-2.78-13.096-5.223c-3.534-2.147-6.832-4.65-10.043-7.25c0.599,0.716,1.218,1.415,1.861,2.091
							c3.628,3.814,7.907,6.99,12.536,9.487c0.18,0.097,0.049,0.35-0.132,0.313c-1.034-0.21-2.046-0.51-3.035-0.876
							c-3.007-1.112-5.778-2.751-8.484-4.46c0.685,0.632,1.395,1.238,2.132,1.809c4.134,3.201,8.919,5.383,13.615,7.613
							c0.156,0.074,0.076,0.324-0.087,0.319c-2.877-0.072-5.731-0.583-8.481-1.423c-5.152-1.572-9.946-4.245-14.198-7.529
							c-0.965-0.746-1.904-1.529-2.817-2.34c0.745,0.949,1.536,1.863,2.381,2.734c3.162,3.256,7.154,5.518,10.494,8.569
							c0.141,0.129-0.014,0.308-0.167,0.287c-0.984-0.14-1.946-0.4-2.878-0.745c-2.98-1.102-5.598-2.93-8.274-4.615
							c2.159,2.157,4.512,4.109,6.919,5.983c0.153,0.119-0.022,0.308-0.167,0.287c-2.175-0.325-4.263-1.06-6.193-2.112
							c-3.401-1.853-6.236-4.568-8.917-7.323c-2.516-2.587-4.943-5.297-7.747-7.582c0.78,1.638,1.745,3.184,2.793,4.663
							c1.069,1.509,2.227,2.956,3.423,4.367c1.066,1.259,2.31,2.35,3.601,3.372c2.484,1.966,5.247,3.691,7.291,6.15
							c0.087,0.105,0.04,0.303-0.121,0.293c-3.233-0.2-6.354-1.257-9.288-2.582c-5.228-2.359-10.14-5.481-14.209-9.543
							c-0.9-0.898-1.783-1.825-2.561-2.832c-0.752-0.974-1.432-2-2.117-3.021c-0.7-1.044-1.399-2.092-2.181-3.078
							c-0.606-0.764-1.273-1.501-2.048-2.099c0.203,1.931,0.767,3.804,1.653,5.533c1.641,3.203,4.205,5.816,6.869,8.186
							c2.664,2.37,5.518,4.528,8.075,7.018c0.128,0.125-0.005,0.322-0.167,0.287c-1.365-0.297-2.684-0.765-3.944-1.365
							c-4.129-1.968-7.445-5.184-10.993-8.01c0.562,0.7,1.157,1.374,1.784,2.018c3.279,3.369,7.276,6.007,11.465,8.106
							c0.178,0.089,0.05,0.362-0.132,0.313c-0.54-0.145-1.078-0.292-1.617-0.444c-4.388-1.233-8.73-2.697-12.842-4.678
							c-2.34-1.127-4.588-2.41-6.689-3.935c-2.077-1.506-4.068-3.149-5.894-4.952c-1.722-1.7-3.47-3.619-4.412-5.881
							c-0.081-0.194-0.154-0.393-0.218-0.594c-0.004,0.114-0.015,0.227-0.014,0.341c0.023,2.96,1.605,5.546,3.53,7.685
							c1,1.111,2.098,2.132,3.219,3.118c1.174,1.032,2.356,2.054,3.627,2.966c2.809,2.015,5.897,3.61,9.043,5.027
							c3.198,1.44,6.481,2.825,9.861,3.778c3.513,0.991,7.106,1.502,10.711,2.019c3.236,0.464,6.526,0.944,9.797,0.569
							c0.422-0.048,0.839-0.133,1.252-0.237c4.647,0.732,9.368,1.003,14.054,0.591c3.494-0.307,7.128-0.917,10.311-2.465
							c1.393-0.171,2.778-0.435,4.15-0.813c2.208-0.607,4.474-1.45,6.27-2.906c0.153-0.03,0.306-0.059,0.459-0.091
							c2.289-0.493,4.519-1.247,6.683-2.134c2.267-0.93,4.445-2.032,6.581-3.227c2.214-0.587,4.395-1.296,6.558-2.055
							c1.77-0.621,3.557-1.235,5.258-2.031c0.056-0.027,0.114-0.062,0.168-0.103c0.19-0.019,0.38-0.034,0.571-0.056
							c2.829-0.333,5.626-0.915,8.331-1.81c2.248-0.744,4.357-1.796,6.474-2.845c1.043-0.517,2.086-1.061,3.057-1.705
							c0.527-0.35,1.066-0.754,1.512-1.231C214.322,36.785,214.251,36.781,214.18,36.777z"/>
						<path style="opacity:0.4;fill:#D8D5BE;" d="M84.594,31.831c0.638-0.609,1.458-1.235,2.334-1.441
							c0.805-0.19,1.766-0.426,2.591-0.271c0.349,0.066,0.712,0.29,0.876,0.612c0.097,0.191,0.118,0.409,0.189,0.608
							c0.087,0.242,0.247,0.44,0.396,0.647c0.636,0.889,1.285,1.77,1.961,2.63c2.55,3.241,5.667,6.511,9.679,7.823
							c-0.202-0.158-0.407-0.31-0.605-0.472c-1.916-1.57-3.697-3.355-5.088-5.413c-1.284-1.9-2.357-4.199-2.141-6.546
							c0.202-2.206,1.421-4.127,2.889-5.723c1.515-1.647,3.307-3.067,5.101-4.398c3.743-2.778,7.907-4.962,12.223-6.705
							c-2.16,0.711-4.283,1.532-6.351,2.475c-2.921,1.332-5.779,2.899-8.512,4.584c-2.542,1.568-5.135,3.424-6.836,5.926
							c-0.105,0.155-0.196,0.318-0.293,0.478c-0.904,0.138-1.802,0.308-2.684,0.526c-1.872,0.463-3.755,1.178-5.215,2.472
							c-1.304,1.156-2.027,2.743-2.163,4.449C83.352,33.233,83.949,32.448,84.594,31.831z"/>
						<g>
							<path style="fill:#E9E9EA;" d="M135.491,59.935c-1.298-0.568-2.637-0.849-4.027-1.088c-1.346-0.232-2.661-0.531-3.949-0.994
								c-2.609-0.939-5.01-2.357-7.391-3.756c-0.105-0.062-0.298,0.117-0.18,0.189c2.325,1.429,4.636,2.91,7.184,3.915
								c1.307,0.516,2.654,0.876,4.034,1.132c1.399,0.259,2.839,0.403,4.21,0.795C135.475,60.157,135.62,59.991,135.491,59.935z"/>
							<path style="fill:#E9E9EA;" d="M159.858,57.552c-1.178,0.204-2.352-0.067-3.51-0.285c-1.128-0.212-2.239-0.438-3.336-0.783
								c-2.341-0.735-4.776-1.777-6.723-3.295c-0.094-0.073-0.277,0.095-0.174,0.183c1.992,1.712,4.287,2.89,6.796,3.661
								c0.039,0.012,0.078,0.022,0.117,0.034c-1.867,0.101-3.719,0.248-5.598,0.069c-2.282-0.217-4.737-0.84-6.649-2.153
								c-0.045-0.031-0.13,0.048-0.08,0.084c0.944,0.665,1.902,1.236,2.989,1.637c1.094,0.404,2.256,0.632,3.412,0.773
								c2.236,0.272,4.607,0.243,6.833-0.157c0.816,0.211,1.645,0.381,2.479,0.497c1.1,0.152,2.406,0.305,3.454-0.166
								C159.918,57.627,159.935,57.539,159.858,57.552z"/>
							<path style="fill:#E9E9EA;" d="M171.138,53.362c-1.715,0.677-3.588,0.721-5.399,0.52c-1.796-0.2-3.594-0.632-5.304-1.214
								c-0.087-0.03-0.21,0.12-0.101,0.162c1.769,0.682,3.589,1.206,5.473,1.441c1.787,0.223,3.832,0.234,5.388-0.782
								C171.28,53.435,171.24,53.322,171.138,53.362z"/>
							<path style="fill:#E9E9EA;" d="M184.058,48.09c-1.266,0.178-2.564,0.351-3.845,0.304c-1.286-0.047-2.542-0.296-3.794-0.576
								c-0.961-0.215-1.92-0.432-2.853-0.75c-0.932-0.317-1.905-0.696-2.622-1.394c-0.079-0.077-0.282,0.089-0.201,0.172
								c1.441,1.475,3.532,2.028,5.48,2.483c0.764,0.178,1.532,0.345,2.307,0.457c-0.424,0.094-0.85,0.177-1.292,0.21
								c-0.687,0.051-1.379,0.029-2.065-0.028c-1.439-0.12-2.885-0.407-4.287-0.751c-0.06-0.015-0.146,0.088-0.069,0.111
								c1.424,0.417,2.832,0.822,4.312,0.991c1.364,0.155,2.997,0.179,4.265-0.434c0.239,0.02,0.478,0.036,0.718,0.041
								c1.378,0.031,2.663-0.196,3.963-0.632C184.194,48.256,184.212,48.069,184.058,48.09z"/>
							<path style="fill:#E9E9EA;" d="M123.483,56.132c-2.66,0.24-5.268-0.258-7.789-1.089c-1.347-0.444-2.668-0.943-3.941-1.573
								c-1.216-0.602-2.407-1.253-3.609-1.882c-0.111-0.058-0.315,0.126-0.189,0.198c1.251,0.72,2.46,1.507,3.743,2.171
								c1.244,0.644,2.548,1.135,3.875,1.579c1.314,0.439,2.644,0.775,4.016,0.973c1.281,0.185,2.658,0.331,3.882-0.178
								C123.547,56.3,123.622,56.119,123.483,56.132z"/>
							<path style="fill:#E9E9EA;" d="M149.937,60.051c-0.899,0.015-1.749-0.021-2.643-0.145c-0.802-0.111-1.602-0.275-2.395-0.438
								c-1.524-0.314-3.027-0.717-4.488-1.253c-2.97-1.088-5.714-2.676-8.254-4.55c-1.472-1.086-2.925-2.267-4.226-3.555
								c-0.072-0.071-0.241,0.05-0.171,0.12c1.164,1.177,2.323,2.327,3.612,3.37c1.264,1.024,2.607,1.95,4.01,2.774
								c2.761,1.621,5.835,2.873,8.992,3.453c0.888,0.163,1.774,0.258,2.675,0.314c0.924,0.057,1.99,0.379,2.882,0.013
								C149.973,60.138,150.009,60.05,149.937,60.051z"/>
							<path style="fill:#E9E9EA;" d="M199.893,43.379c-1.294,0.434-2.663,0.471-4.013,0.539c-1.34,0.067-2.679,0.081-4.018-0.015
								c-2.854-0.204-5.728-0.851-8.302-2.122c-0.139-0.069-0.389,0.16-0.233,0.244c2.612,1.398,5.509,2.11,8.451,2.341
								c0.734,0.058,1.47,0.082,2.206,0.079c-0.688,0.119-1.373,0.27-2.059,0.371c-1.315,0.192-2.664,0.203-3.992,0.2
								c-2.593-0.005-5.194-0.243-7.71-0.892c-1.44-0.371-2.825-0.9-4.118-1.638c-0.111-0.063-0.313,0.124-0.189,0.198
								c2.224,1.326,4.698,2.099,7.25,2.473c2.582,0.379,5.309,0.451,7.909,0.213c1.657-0.152,3.223-0.792,4.88-0.976
								c0.015-0.002,0.03-0.01,0.042-0.022c0.043-0.003,0.085-0.004,0.128-0.007c1.278-0.087,2.687-0.234,3.802-0.913
								C199.979,43.422,199.951,43.359,199.893,43.379z"/>
							<path style="fill:#E9E9EA;" d="M207.361,33.649c-1.33-0.547-2.727-0.906-4.119-1.26c-1.423-0.362-2.85-0.712-4.273-1.076
								c-2.822-0.723-5.626-1.5-8.357-2.521c-1.613-0.603-3.206-1.279-4.737-2.067c-0.094-0.048-0.267,0.105-0.16,0.168
								c5.114,2.989,10.879,4.344,16.57,5.777c1.645,0.415,3.283,0.869,4.951,1.18C207.341,33.869,207.502,33.707,207.361,33.649z"
								/>
							<path style="fill:#E9E9EA;" d="M102.605,41.73c-2.251-1.488-4.476-2.926-6.342-4.905c-1.795-1.903-3.49-4.336-3.616-7.039
								c-0.072-1.531,0.484-2.838,1.128-4.189c0.033-0.07-0.074-0.061-0.104-0.031c-1.981,1.998-1.88,5.1-0.784,7.501
								c1.203,2.635,3.368,4.784,5.64,6.523c1.208,0.924,2.492,1.8,3.918,2.346C102.542,41.973,102.718,41.805,102.605,41.73z"/>
						</g>
						<path style="opacity:0.4;fill:#D8D5BE;" d="M214.978,35.409c-0.979-0.455-2.026-0.54-3.068-0.767
							c-1.204-0.263-2.383-0.643-3.566-0.983c-0.157-0.045-0.315-0.087-0.473-0.13c0.483-0.007,0.967-0.021,1.451-0.058
							c1.314-0.1,3.107-0.243,4.016-1.344c0.089-0.107,0.141-0.25,0.018-0.355c-1.089-0.927-2.749-1.11-4.111-1.308
							c-1.893-0.275-3.761-0.761-5.635-1.149c-2.094-0.433-4.165-0.959-6.247-1.445c-0.872-0.204-1.744-0.411-2.614-0.622
							c-6.37-3.77-13.089-6.982-19.939-9.773c-4.505-1.836-9.124-3.438-13.831-4.696c1.593,0.568,3.165,1.196,4.71,1.883
							c3.363,1.495,6.591,3.346,9.706,5.301c2.769,1.738,5.335,3.771,7.98,5.687c2.662,1.928,5.434,3.743,8.495,4.974
							c0.163,0.066,0.163,0.358-0.046,0.337c-2.163-0.215-4.21-0.957-6.315-1.449c0.905,0.766,1.911,1.407,2.96,1.959
							c1.173,0.618,2.396,1.137,3.635,1.606c1.196,0.453,2.409,0.899,3.643,1.237c2.579,0.708,5.294,0.952,7.769,2.015
							c0.085,0.037,0.104,0.162,0.062,0.235c-0.88,1.508-2.335,2.601-3.85,3.417c-1.498,0.806-3.123,1.383-4.774,1.782
							c-1.501,0.363-3.05,0.591-4.597,0.574c-4.194-0.047-8.138-1.516-11.966-3.107c1.625,1.213,3.233,2.45,4.988,3.471
							c0.149,0.087,0.082,0.317-0.087,0.319c-1.233,0.022-2.465-0.079-3.68-0.29c-2.013-0.349-3.957-0.992-5.808-1.849
							c2.179,1.615,4.507,3.01,6.958,4.209c0.127,0.062,0.103,0.291-0.041,0.313c-1.408,0.222-2.827,0.416-4.256,0.402
							c-2.301-0.023-4.501-0.616-6.57-1.601c-1.707-0.813-3.317-1.811-5.009-2.65c0.312,0.337,0.629,0.67,0.957,0.992
							c1.89,1.855,4.037,3.409,6.273,4.819c0.137,0.086,0.09,0.328-0.087,0.319c-1.9-0.088-3.77-0.519-5.534-1.221
							c1.671,0.918,3.509,1.553,5.165,2.494c0.093,0.053,0.116,0.195,0.035,0.269c-1.237,1.135-2.714,1.969-4.332,2.422
							c-2.847,0.797-5.902,0.436-8.696-0.406c-1.93-0.582-3.79-1.4-5.555-2.383c2.237,1.678,4.636,3.123,7.17,4.308
							c0.141,0.066,0.089,0.274-0.041,0.313c-1.982,0.602-4.053,0.91-6.126,0.826c-3.442-0.139-6.722-1.352-9.651-3.121
							c-1.239-0.748-2.417-1.587-3.551-2.484c0.699,0.807,1.43,1.587,2.195,2.332c1.62,1.575,3.381,2.994,5.226,4.296
							c0.113,0.08,0.113,0.277-0.041,0.313c-0.872,0.208-1.772,0.28-2.667,0.244c-1.667-0.067-3.316-0.477-4.848-1.13
							c-0.479-0.204-0.948-0.436-1.403-0.693c1.277,1,2.652,1.885,3.953,2.858c0.125,0.093,0.1,0.326-0.087,0.319
							c-1.577-0.056-3.131-0.396-4.618-0.918c-2.805-0.985-5.38-2.564-7.748-4.343c-1.84-1.383-3.569-2.909-5.214-4.519
							c0.28,0.418,0.57,0.829,0.871,1.233c2.155,2.897,4.821,5.405,7.807,7.431c0.11,0.074,0.117,0.287-0.041,0.313
							c-2.179,0.356-4.414,0.104-6.554-0.377c-0.954-0.215-1.896-0.479-2.827-0.778c-0.909-0.292-1.82-0.596-2.703-0.958
							c-1.68-0.689-3.262-1.587-4.766-2.601c-1.991-1.342-3.848-2.864-5.749-4.328c0.119,0.168,0.236,0.338,0.357,0.506
							c1.992,2.772,4.342,5.719,7.643,6.954c0.175,0.065,0.157,0.337-0.046,0.337c-1.367-0.003-2.729-0.218-4.053-0.547
							c-2.18-0.542-4.287-1.392-6.282-2.432c1.938,1.253,3.957,2.385,6.022,3.419c0.148,0.074,0.082,0.334-0.087,0.319
							c-0.397-0.034-0.793-0.074-1.189-0.119c-3.262-0.375-6.48-1.116-9.59-2.169c-2.701-0.915-5.324-2.075-7.836-3.424
							c-2.022-1.085-3.968-2.314-5.809-3.685c0.797,0.681,1.608,1.344,2.461,1.956c2.809,2.015,5.897,3.61,9.043,5.027
							c3.198,1.44,6.481,2.825,9.861,3.778c3.513,0.991,7.106,1.502,10.711,2.019c3.236,0.464,6.526,0.944,9.797,0.569
							c0.422-0.048,0.839-0.133,1.252-0.237c4.647,0.732,9.368,1.003,14.054,0.591c3.494-0.307,7.128-0.917,10.311-2.465
							c1.393-0.171,2.778-0.435,4.15-0.813c2.208-0.607,4.474-1.45,6.27-2.906c0.153-0.03,0.306-0.059,0.459-0.091
							c2.289-0.493,4.519-1.247,6.683-2.134c2.267-0.93,4.445-2.032,6.581-3.227c2.214-0.587,4.395-1.296,6.558-2.055
							c1.77-0.621,3.557-1.235,5.258-2.031c0.056-0.027,0.114-0.062,0.168-0.103c0.19-0.019,0.38-0.034,0.571-0.056
							c2.829-0.333,5.626-0.915,8.331-1.81c2.248-0.744,4.357-1.796,6.474-2.845c1.043-0.517,2.086-1.061,3.057-1.705
							c0.82-0.545,1.69-1.207,2.15-2.102C215.101,35.78,215.174,35.5,214.978,35.409z"/>
					</g>
					<path style="opacity:0.4;fill:#D8D5BE;" d="M107.164,33.994c0.723,1.52,1.602,2.98,2.629,4.314
						c1.129,1.466,2.461,2.732,3.862,3.934c0.504,0.433,1.021,0.855,1.548,1.267c0.04-0.046,0.074-0.094,0.093-0.144
						c0.339,0.334,0.685,0.659,1.028,0.987c1.225,0.887,2.506,1.701,3.843,2.403c-0.613-0.568-1.362-1.028-1.956-1.584
						c-1.134-1.063-2.21-2.184-3.27-3.32c-2.103-2.252-4.329-4.404-6.25-6.819c-0.969-1.218-1.842-2.499-2.623-3.845
						C106.343,32.161,106.743,33.11,107.164,33.994z"/>
					<path style="opacity:0.4;fill:#D8D5BE;" d="M121.819,37.701c0.049,0.059,0.101,0.114,0.15,0.172
						c0.285,0.3,0.575,0.595,0.875,0.88c0.008,0.009,0.01,0.019,0.02,0.027c0.022,0.018,0.044,0.035,0.066,0.054
						c0.517,0.488,1.054,0.958,1.611,1.411c0.397,0.323,0.802,0.635,1.209,0.945c0.348,0.234,0.701,0.461,1.06,0.676
						c1.107,0.661,2.266,1.235,3.459,1.724c-1.075-1.611-2.744-2.785-4.244-3.961c-0.893-0.7-1.75-1.432-2.69-2.072
						c-0.595-0.405-1.201-0.795-1.799-1.194c-0.302-0.249-0.619-0.478-0.952-0.686c-0.138-0.173-0.275-0.347-0.407-0.526
						C120.621,36.062,121.173,36.919,121.819,37.701z"/>
					<path style="opacity:0.4;fill:#D8D5BE;" d="M135.669,39.024c-0.96-0.661-2.007-1.196-3.082-1.642
						c-0.015-0.005-0.03-0.01-0.045-0.015c-0.046-0.013-0.096-0.014-0.148-0.003c0.111,0.145,0.225,0.287,0.343,0.426
						c0.917,1.082,2.015,2.032,3.236,2.755c0.628,0.372,1.319,0.697,2.037,0.885C137.464,40.43,136.599,39.664,135.669,39.024z"/>
				</g>
			</g>
		</g>
		<path style="fill:#5E6062;" d="M222.111,34.294c-2.083-0.244-4.182-0.294-6.264-0.563c-2.096-0.27-4.174-0.654-6.235-1.124
			c-4.033-0.92-8.121-1.984-11.892-3.71c-0.709-0.325-1.426-0.634-2.118-0.995c-0.654-0.341-1.42-0.743-1.802-1.403
			c-0.069-0.12-0.295,0.041-0.232,0.163c0.09,0.177,0.208,0.338,0.341,0.489c-0.342-0.28-0.678-0.565-0.993-0.867
			c-0.057-0.055-0.203,0.063-0.144,0.124c0.562,0.585,1.07,1.217,1.643,1.794c0.565,0.568,1.149,1.118,1.756,1.641
			c1.175,1.012,2.395,1.963,3.665,2.852c-0.957-0.449-1.927-0.869-2.899-1.291c-0.112-0.049-0.274,0.152-0.133,0.213
			c2.653,1.152,5.205,2.621,7.607,4.227c1.136,0.759,2.217,1.589,3.302,2.419c1.064,0.815,2.128,1.634,3.135,2.52
			c1.13,0.994,2.193,2.065,3.135,3.241c0.08,0.1,0.268-0.038,0.211-0.148c-1.242-2.36-3.521-4.064-5.599-5.647
			c-0.896-0.683-1.797-1.348-2.714-1.988c1.019,0.481,2.058,0.917,3.119,1.288c1.762,0.616,3.56,1.053,5.415,1.269
			c0.145,0.017,0.347-0.264,0.148-0.309c-3.161-0.715-6.249-1.813-9.137-3.285c-2.049-1.045-4.004-2.264-5.875-3.601
			c1.465,0.929,2.992,1.761,4.567,2.488c3.356,1.549,6.924,2.666,10.581,3.225c2.089,0.319,4.275,0.55,6.385,0.36
			c0.177-0.016,0.392-0.319,0.118-0.346c-1.862-0.179-3.725-0.235-5.577-0.519c-1.811-0.277-3.602-0.651-5.363-1.158
			c-2.628-0.756-5.173-1.773-7.607-3.014c0.074,0.03,0.147,0.063,0.221,0.092c2.669,1.05,5.482,1.744,8.31,2.2
			c1.526,0.246,3.106,0.462,4.654,0.42c0.163-0.004,0.457-0.341,0.188-0.392c-1.315-0.246-2.657-0.374-3.98-0.579
			c-1.39-0.215-2.772-0.486-4.139-0.815c-2.749-0.662-5.437-1.586-7.984-2.816c-0.806-0.389-1.602-0.815-2.37-1.284
			c1.503,0.739,3.03,1.379,4.637,1.889c4.066,1.291,8.247,2.312,12.472,2.914c2.413,0.343,4.942,0.628,7.376,0.371
			C222.218,34.621,222.35,34.322,222.111,34.294z"/>
		<path style="fill:#5E6062;" d="M214.183,44.409c-0.739-0.784-1.548-1.501-2.358-2.209c-1.984-1.735-4.19-3.144-6.303-4.706
			c-0.09-0.066-0.265,0.097-0.164,0.172c2.03,1.501,4.029,3.082,5.927,4.748c0.825,0.723,1.649,1.459,2.399,2.26
			c0.737,0.787,1.315,1.638,1.817,2.588c0.096,0.181,0.407-0.049,0.373-0.21C215.659,46.026,214.882,45.15,214.183,44.409z"/>
		<path style="fill:#5E6062;" d="M215.311,48.54c-0.7-1.105-1.624-2.083-2.495-3.055c-0.855-0.953-1.74-1.88-2.669-2.762
			c-1.914-1.816-4.048-3.329-6.339-4.631c-1.304-0.741-2.649-1.408-3.965-2.125c-0.107-0.058-0.302,0.12-0.182,0.191
			c2.215,1.301,4.459,2.581,6.562,4.061c2.165,1.523,4.086,3.355,5.863,5.31c0.98,1.078,1.866,2.268,2.929,3.266
			C215.138,48.91,215.402,48.683,215.311,48.54z"/>
		<path style="fill:#5E6062;" d="M226.294,32.365c-1.853-0.06-3.706,0.059-5.559-0.01c-1.858-0.069-3.721-0.309-5.565-0.539
			c-1.745-0.217-3.478-0.516-5.218-0.768c-1.666-0.242-3.335-0.462-4.992-0.763c-1.834-0.333-3.764-0.726-5.473-1.49
			c-0.057-0.025-0.157,0.086-0.091,0.117c1.486,0.698,2.975,1.255,4.58,1.621c1.657,0.378,3.338,0.622,5.017,0.877
			c3.568,0.542,7.118,1.157,10.722,1.426c2.145,0.16,4.292-0.002,6.438-0.055C226.379,32.776,226.612,32.375,226.294,32.365z"/>
		<path style="fill:#5E6062;" d="M230.677,33.172c-2.09,0.036-4.172-0.019-6.261-0.065c-2.107-0.047-4.226,0.081-6.33-0.087
			c-0.18-0.014-0.348,0.292-0.109,0.319c2.118,0.246,4.228,0.19,6.355,0.254c2.087,0.063,4.213,0.272,6.281-0.107
			C230.759,33.46,230.905,33.168,230.677,33.172z"/>
		<path style="fill:#5E6062;" d="M220.3,30.551c-1.803-0.131-3.634,0.048-5.44,0.05c-1.842,0.002-3.665-0.139-5.49-0.383
			c-3.609-0.483-7.236-1.151-10.767-2.046c-0.945-0.24-1.886-0.497-2.816-0.793c-0.963-0.306-1.899-0.684-2.856-1.007
			c-0.118-0.04-0.336,0.159-0.195,0.251c1.432,0.934,3.167,1.509,4.801,1.977c1.719,0.492,3.471,0.869,5.222,1.224
			c3.647,0.738,7.389,1.452,11.121,1.46c2.101,0.005,4.253-0.059,6.337-0.336C220.416,30.923,220.582,30.572,220.3,30.551z"/>
		<path style="fill:#5E6062;" d="M209.612,28.256c-1.33-0.148-2.691-0.119-4.028-0.189c-1.375-0.072-2.749-0.191-4.115-0.362
			c-2.774-0.347-5.525-0.958-8.165-1.883c-1.496-0.524-2.99-1.133-4.351-1.949c-0.145-0.087-0.408,0.161-0.247,0.259
			c1.169,0.714,2.352,1.398,3.611,1.943c1.296,0.561,2.632,1.009,3.997,1.37c2.759,0.73,5.622,1.089,8.467,1.251
			c1.564,0.089,3.182,0.178,4.741-0.003C209.745,28.667,209.916,28.29,209.612,28.256z"/>
		<path style="fill:#5E6062;" d="M230.024,28.268c-1.176,0.266-2.382,0.242-3.575,0.364c-1.426,0.146-2.852,0.281-4.283,0.372
			c-2.801,0.179-5.614,0.266-8.419,0.118c-0.127-0.007-0.247,0.212-0.077,0.226c2.862,0.242,5.729,0.262,8.595,0.086
			c1.387-0.085,2.772-0.202,4.155-0.346c1.212-0.126,2.473-0.138,3.627-0.567C230.186,28.471,230.218,28.224,230.024,28.268z"/>
		<path style="fill:#5E6062;" d="M229.193,29.131c-2.179,0.413-4.342,0.895-6.567,0.963c-0.143,0.004-0.28,0.261-0.088,0.257
			c2.236-0.045,4.449-0.389,6.631-0.858C229.39,29.446,229.484,29.076,229.193,29.131z"/>
		<path style="fill:#5E6062;" d="M234.007,31.753c-0.677-0.076-1.364-0.042-2.044-0.055c-0.686-0.014-1.37-0.043-2.055-0.087
			c-0.146-0.009-0.281,0.245-0.088,0.257c0.693,0.045,1.386,0.093,2.08,0.133c0.684,0.04,1.369,0.094,2.052,0.023
			C234.09,32.01,234.195,31.774,234.007,31.753z"/>
		<path style="fill:#5E6062;" d="M228.614,36.63c-2.088-0.081-4.153-0.168-6.228-0.431c-0.103-0.013-0.197,0.162-0.062,0.182
			c2.041,0.295,4.146,0.57,6.211,0.479C228.659,36.855,228.792,36.637,228.614,36.63z"/>
		<path style="fill:#5E6062;" d="M219.312,44.913c-0.436-0.696-1.075-1.264-1.677-1.816c-0.653-0.597-1.341-1.152-2.065-1.662
			c-1.379-0.971-2.848-1.998-4.474-2.483c-0.074-0.022-0.177,0.098-0.085,0.137c0.79,0.327,1.54,0.836,2.241,1.319
			c0.682,0.469,1.377,0.927,2.044,1.418c0.653,0.481,1.278,1.001,1.879,1.546c0.635,0.576,1.2,1.238,1.876,1.765
			C219.167,45.227,219.393,45.043,219.312,44.913z"/>
		<path style="fill:#5E6062;" d="M219.767,46.354c-0.692-1.145-1.754-2.112-2.776-2.96c-1.067-0.885-2.243-1.643-3.463-2.299
			c-0.056-0.03-0.157,0.064-0.095,0.099c1.177,0.656,2.254,1.466,3.272,2.345c1.048,0.906,1.928,1.924,2.776,3.014
			C219.586,46.688,219.855,46.499,219.767,46.354z"/>
		<path style="fill:#5E6062;" d="M224.51,42.549c-0.931-0.902-2.138-1.516-3.32-2.025c-1.226-0.527-2.502-0.931-3.788-1.286
			c-0.093-0.025-0.224,0.134-0.106,0.171c1.238,0.39,2.464,0.827,3.643,1.374c1.191,0.553,2.285,1.235,3.357,1.99
			C224.417,42.859,224.629,42.664,224.51,42.549z"/>
		<path style="fill:#5E6062;" d="M222.211,40.327c-0.973-0.321-1.882-0.793-2.829-1.177c-0.105-0.042-0.25,0.137-0.122,0.196
			c0.922,0.427,1.794,0.987,2.784,1.25C222.189,40.634,222.397,40.389,222.211,40.327z"/>
	</g>
	<g>
		<path style="fill:#7B7E79;" d="M32.715,139.428c0.139-0.097,0.28-0.191,0.416-0.293c0.49-0.368,0.906-0.822,1.375-1.216
			c0.051-0.043,0.067-0.123,0.059-0.2c-2.113,1.219-4.368,2.144-6.715,2.821c0.235,0.288,0.492,0.561,0.769,0.803
			c1.094,0.96,2.404,1.675,3.731,2.258c1.11,0.488,2.277,0.822,3.473,0.955c0.064-0.064,0.02-0.228-0.069-0.249
			c-1.175-0.273-2.296-0.767-3.367-1.32c1.31,0.32,2.829,0.418,4.106,0.027c0.193-0.059,0.166-0.445-0.041-0.466
			c-0.699-0.07-1.401-0.098-2.095-0.212c-0.42-0.069-0.837-0.156-1.253-0.251c1.171-0.006,2.291-0.204,3.352-0.746
			c0.157-0.08,0.043-0.421-0.14-0.345c-0.575,0.238-1.18,0.28-1.794,0.321c-0.617,0.041-1.24,0.019-1.856-0.022
			c-0.622-0.042-1.244-0.109-1.857-0.227c0.198-0.067,0.394-0.137,0.588-0.212c1.507-0.584,2.821-1.419,4.005-2.518
			c0.11-0.102-0.017-0.435-0.172-0.327C34.44,138.559,33.596,139.036,32.715,139.428z"/>
		<path style="fill:#5F7489;" d="M33.605,99.291c-1.407-0.019-2.837,0.254-4.146,0.664c-1.887,0.591-3.624,1.589-5.165,2.82
			c-3.085,2.463-5.345,5.881-6.711,9.563c-0.685,1.847-1.145,3.779-1.353,5.738c-0.093,0.878-0.125,1.759-0.11,2.639
			c0.043,0.373,0.094,0.743,0.16,1.111c-0.03,1.261,0.196,2.56,0.487,3.746c0.443,1.806,1.109,3.544,1.918,5.217
			c1.434,2.968,3.278,5.601,5.612,7.873c0.602,0.476,1.232,0.917,1.88,1.316c1.138,0.7,2.393,1.307,3.705,1.643
			c-1.245-1.333-2.15-2.933-2.884-4.6c-0.841-1.911-1.573-3.876-2.099-5.898c-0.487-1.873-0.833-3.804-0.824-5.745
			c0.006-1.386,0.186-2.938,1.004-4.09c0.493-0.29,0.967-0.613,1.417-0.966c1.729-1.36,3.168-3.035,4.361-4.877
			c2.325-3.591,3.774-7.759,4.24-11.983c0.096-0.872,0.179-1.774,0.039-2.646c-0.103-0.642-0.481-1.569-1.235-1.451
			C33.803,99.332,33.703,99.316,33.605,99.291z"/>
		<path style="opacity:0.44;fill:#868B9B;" d="M33.9,99.363c-0.097-0.031-0.197-0.047-0.296-0.072
			c-1.407-0.019-2.837,0.254-4.146,0.664c-1.887,0.591-3.624,1.589-5.165,2.82c-1.656,1.322-3.071,2.921-4.241,4.686
			c0.325-0.366,0.645-0.737,0.993-1.082c0.601-0.597,1.262-1.138,2.027-1.512c0.593-0.29,1.365-0.545,2.014-0.285
			c0.996,0.398,1.072,1.758,1.126,2.664c0.043,0.726,0.087,1.454,0.117,2.181c0.075,1.816,0.141,3.751-0.305,5.526
			c-0.147,0.583-0.385,1.353-0.993,1.612c-0.885,0.376-1.619-0.587-1.954-1.27c-0.551-1.126-0.773-2.451-0.898-3.689
			c-0.054-0.533-0.075-1.072-0.064-1.61c-0.485,1.959-0.655,3.979-0.425,6.022c0.084,0.749,0.223,1.486,0.402,2.218
			c0.089,0.364,0.199,0.72,0.334,1.069c0.103,0.266,0.259,0.473,0.409,0.714c0.309,0.497,0.247,0.964,0.07,1.501
			c-0.219,0.666-0.362,1.349-0.45,2.045c-0.371,2.964,0.241,6.015,1.191,8.819c0.487,1.438,1.09,2.841,1.82,4.172
			c0.353,0.642,0.734,1.269,1.149,1.872c0.335,0.487,0.753,0.943,1.023,1.471c0.148,0.29,0.166,0.66-0.223,0.746
			c-0.011,0.002-0.022,0.001-0.033,0.003c0.798,0.406,1.633,0.752,2.498,0.973c-1.245-1.333-2.15-2.932-2.884-4.6
			c-0.841-1.912-1.573-3.876-2.099-5.898c-0.487-1.873-0.833-3.804-0.824-5.745c0.006-1.386,0.186-2.938,1.004-4.09
			c0.493-0.29,0.967-0.613,1.417-0.966c1.729-1.359,3.169-3.035,4.361-4.877c2.325-3.591,3.774-7.759,4.24-11.983
			c0.096-0.873,0.179-1.774,0.039-2.646C35.032,100.172,34.654,99.245,33.9,99.363z"/>
		<path style="fill:#A9ABA4;" d="M33.9,99.363c-0.097-0.031-0.197-0.047-0.296-0.072c-1.407-0.019-2.837,0.254-4.146,0.664
			c-1.184,0.371-2.309,0.903-3.364,1.551c-0.818,1.087-1.552,2.236-2.17,3.449c-0.87,1.708-1.507,3.536-1.791,5.435
			c-0.241,1.618-0.196,3.254,0.062,4.867c0.231,1.44,0.616,3.068,1.612,4.186c0.483,0.542,1.102,0.846,1.824,0.911
			c0.267,0.024,0.547,0.022,0.826-0.007c0.012-0.009,0.025-0.018,0.037-0.027c1.729-1.359,3.169-3.035,4.361-4.877
			c2.325-3.591,3.774-7.759,4.24-11.983c0.096-0.873,0.179-1.774,0.039-2.646C35.032,100.172,34.654,99.245,33.9,99.363z"/>
		<path style="fill:#A9ABA4;" d="M34.287,100.493c-0.339,1.152-0.844,2.246-1.385,3.315c-1.122,2.216-2.297,4.41-3.604,6.523
			c-0.75,1.212-1.54,2.4-2.374,3.555c-0.351,0.485-0.706,0.968-1.081,1.435c-0.255,0.317-0.527,0.637-0.855,0.881
			c-1.87,1.387-2.545-2.563-2.675-3.676c-0.106-0.908-0.123-1.829-0.073-2.748c-0.039,0.203-0.075,0.407-0.106,0.612
			c-0.241,1.618-0.196,3.254,0.062,4.867c0.231,1.44,0.616,3.068,1.612,4.186c0.483,0.542,1.102,0.846,1.824,0.911
			c0.267,0.024,0.547,0.022,0.826-0.007c0.012-0.009,0.025-0.018,0.037-0.027c1.729-1.359,3.169-3.035,4.361-4.877
			c2.325-3.591,3.774-7.759,4.24-11.983c0.096-0.873,0.179-1.774,0.039-2.646c-0.07-0.434-0.269-0.99-0.621-1.274
			C34.456,99.861,34.379,100.18,34.287,100.493z"/>
		<path style="fill:#C2C4C6;" d="M24.966,121.594c-0.192-0.15-0.389-0.291-0.592-0.425c-1.172,1.166-1.864,2.773-2.223,4.414
			c0.002,0.041,0.001,0.082,0.005,0.123c-0.02,0.44,0.051,0.87,0.307,1.231c0.065,0.092,0.157,0.134,0.262,0.088
			c0.352-0.154,0.572-0.522,0.727-0.857c0.205-0.442,0.337-0.92,0.444-1.394c0.093-0.412,0.167-0.83,0.227-1.248
			c0.06-0.416,0.096-0.904,0.221-1.342c0.031,0.089,0.064,0.176,0.093,0.265c0.009,0.036,0.021,0.072,0.037,0.105
			c0.271,0.817,0.513,1.642,0.881,2.426c0.198,0.423,0.415,0.849,0.698,1.223c0.229,0.303,0.525,0.633,0.922,0.691
			c0.108,0.016,0.207-0.048,0.249-0.147c0.371-0.882-0.21-1.915-0.639-2.668C26.096,123.221,25.559,122.386,24.966,121.594z"/>
		<g>
			<path style="fill:#636466;" d="M25.543,104.382c-0.398-0.097-0.763,0.164-1.023,0.435c-0.297,0.309-0.522,0.7-0.711,1.082
				c-0.187,0.379-0.336,0.777-0.383,1.198c-0.003,0.032-0.003,0.068-0.005,0.102c-0.092,0.346-0.111,0.698,0.003,1.054
				c0.116,0.366,0.434,0.717,0.828,0.774c0.635,0.092,1.099-0.537,1.388-1.007c0.336-0.548,0.577-1.196,0.66-1.834
				C26.383,105.542,26.317,104.571,25.543,104.382z"/>
		</g>
		<g>
			<path style="fill:#58595B;" d="M25.233,105.075c-0.271-0.066-0.519,0.111-0.696,0.296c-0.202,0.21-0.356,0.476-0.484,0.736
				c-0.127,0.258-0.229,0.528-0.261,0.815c-0.002,0.021-0.002,0.046-0.003,0.069c-0.062,0.236-0.075,0.475,0.002,0.717
				c0.079,0.249,0.295,0.488,0.564,0.527c0.432,0.062,0.748-0.365,0.945-0.686c0.229-0.373,0.393-0.814,0.449-1.248
				C25.805,105.864,25.76,105.203,25.233,105.075z"/>
		</g>
		<g>
			<path style="fill:#FFFFFF;" d="M24.543,106.215c-0.119-0.029-0.229,0.049-0.307,0.13c-0.089,0.092-0.156,0.21-0.213,0.324
				c-0.056,0.113-0.101,0.233-0.115,0.359c-0.001,0.009-0.001,0.02-0.002,0.031c-0.028,0.104-0.033,0.209,0.001,0.316
				c0.035,0.11,0.13,0.215,0.248,0.232c0.19,0.028,0.329-0.161,0.416-0.302c0.101-0.164,0.173-0.358,0.198-0.549
				C24.795,106.562,24.775,106.271,24.543,106.215z"/>
		</g>
		<path style="opacity:0.44;fill:#868B9B;" d="M21.737,130.92c-0.544-2.315-1.147-4.616-1.625-6.946
			c-0.479-2.335-0.804-4.704-1.003-7.079c-0.216-2.586-0.263-5.205-0.047-7.797c-0.573,1.044-1.068,2.13-1.48,3.24
			c-0.685,1.847-1.145,3.779-1.353,5.738c-0.093,0.878-0.125,1.758-0.11,2.638c0.043,0.373,0.095,0.743,0.16,1.11
			c-0.03,1.261,0.196,2.56,0.487,3.746c0.443,1.806,1.11,3.544,1.918,5.217c1.138,2.356,2.54,4.497,4.235,6.418
			C22.66,135.089,22.225,132.996,21.737,130.92z"/>
		<g>
			<g style="opacity:0.44;">
				<path style="fill:#868B9B;" d="M22.239,105.535c-0.047,0.004-0.093,0.015-0.139,0.021c0.013-0.001,0.017-0.001-0.015,0.003
					c-0.001,0-0.002,0-0.002,0.001c-0.013,0.004-0.026,0.007-0.039,0.012c-0.026,0.008-0.052,0.017-0.077,0.027
					c-0.049,0.019-0.097,0.041-0.144,0.064c-0.289,0.34-0.485,0.817-0.585,1.159c-0.154,0.528-0.17,1.215,0.294,1.542
					c-0.407,0.37-0.662,0.97-0.8,1.471c-0.137,0.496-0.183,1.149,0.221,1.519c-0.345,0.601-0.679,1.705,0.043,2.037
					c-0.455,0.829-0.363,2.055,0.236,2.797c-0.092-0.235-0.156-0.48-0.177-0.733c-0.002-0.026,0-0.052-0.001-0.077
					c-0.22-0.65-0.165-1.434,0.206-1.953c0.058-0.081,0.034-0.235-0.075-0.26c-0.764-0.174-0.271-1.307,0.007-1.722
					c0.053-0.079,0.038-0.196-0.047-0.248c-0.473-0.289-0.294-1.014-0.148-1.439c0.157-0.455,0.415-1.006,0.833-1.278
					c0.102-0.066,0.05-0.239-0.052-0.273c-0.625-0.207-0.448-1.025-0.273-1.492c0.157-0.418,0.406-0.879,0.766-1.175
					C22.259,105.535,22.248,105.534,22.239,105.535z"/>
				<path style="fill:#868B9B;" d="M19.948,110.182c-0.539,0.421-0.861,1.917-0.103,2.264c-0.307,0.487-0.456,1.108-0.404,1.672
					c0.03,0.33,0.156,0.616,0.351,0.881c0.089,0.121,0.18,0.248,0.286,0.355c0.016,0.016,0.035,0.033,0.054,0.049
					c0.001,0.014,0.005,0.039,0.002,0.078c-0.06,0.709-0.327,1.453-0.093,2.155c0.195,0.583,0.73,1.029,1.344,1.069
					c-0.28-0.127-0.504-0.343-0.664-0.607c-0.306-0.239-0.504-0.583-0.504-1.045c0.001-0.563,0.272-1.124,0.191-1.69
					c-0.02-0.139-0.082-0.192-0.173-0.286c-0.195-0.201-0.399-0.453-0.485-0.723c-0.19-0.598-0.031-1.381,0.34-1.879
					c0.051-0.068,0.031-0.215-0.067-0.232c-0.741-0.13-0.394-1.492,0.024-1.815C20.147,110.352,20.056,110.098,19.948,110.182z"/>
				<path style="fill:#868B9B;" d="M19.9,108.529c-0.049,0.061-0.098,0.128-0.134,0.197c-0.04,0.076-0.057,0.155-0.059,0.241
					c-0.004,0.186,0.065,0.365,0.169,0.517c0.038,0.056,0.123,0.091,0.174,0.028c0.047-0.059,0.051-0.171,0-0.231
					c-0.023-0.028-0.045-0.057-0.065-0.087c-0.01-0.015-0.018-0.03-0.027-0.045c-0.003-0.006-0.006-0.013-0.009-0.019
					c-0.013-0.029-0.023-0.059-0.034-0.088c-0.002-0.007-0.003-0.014-0.005-0.021c-0.003-0.017-0.006-0.033-0.009-0.05
					c0-0.002,0,0.001,0,0c0-0.007-0.001-0.014-0.001-0.02c0-0.016,0-0.031,0-0.047c0-0.029-0.001-0.072,0.001-0.093
					c0.002-0.023,0.011-0.068,0.019-0.098c0.01-0.036,0.03-0.069,0.049-0.101C19.992,108.573,19.941,108.478,19.9,108.529z"/>
				<path style="fill:#868B9B;" d="M21.202,120.959c-0.031-0.039-0.057-0.079-0.082-0.12c-0.117-0.18-0.212-0.373-0.284-0.574
					c-0.026,0.001-0.053,0.009-0.081,0.036c-0.637,0.613-1.474-0.366-1.423-1.022c0.005-0.06-0.084-0.113-0.098-0.034
					c-0.142,0.815,0.719,1.913,1.525,1.493c0.092,0.323,0.316,0.61,0.582,0.81c0.208,0.156,0.701,0.401,0.987,0.255
					C21.873,121.655,21.487,121.348,21.202,120.959z"/>
				<path style="fill:#868B9B;" d="M18.291,115.702c-0.019,0.117-0.03,0.24-0.027,0.359c0.003,0.129,0.031,0.255,0.069,0.377
					c0.079,0.247,0.223,0.469,0.402,0.656c0.055,0.057,0.146,0.038,0.177-0.033c0.032-0.074,0.021-0.189-0.046-0.243
					c-0.043-0.035-0.085-0.072-0.124-0.111c-0.018-0.019-0.036-0.038-0.054-0.057c-0.003-0.003-0.026-0.03-0.019-0.021
					c0.008,0.009-0.015-0.018-0.018-0.022c-0.066-0.083-0.12-0.171-0.157-0.253c-0.085-0.186-0.135-0.393-0.111-0.603
					c0.003-0.031-0.003-0.07-0.034-0.085C18.323,115.653,18.296,115.673,18.291,115.702z"/>
				<path style="fill:#868B9B;" d="M20.51,123.362c-0.123,0.017-0.238,0.012-0.367-0.027c-0.159-0.049-0.312-0.162-0.41-0.307
					c-0.069-0.043-0.134-0.089-0.199-0.136c0.028,0.237,0.146,0.454,0.334,0.608c0.225,0.184,0.528,0.298,0.82,0.244
					c0.189-0.036,0.383-0.13,0.433-0.33c0.004-0.017,0.003-0.036,0.002-0.055C20.929,123.412,20.717,123.407,20.51,123.362z"/>
				<path style="fill:#868B9B;" d="M20.218,124.609c0.001,0.004-0.001,0.009,0.001,0.013c0.107,0.323,0.351,0.604,0.644,0.775
					c0.145,0.084,0.308,0.146,0.473,0.173c0.087,0.014,0.177,0.016,0.265,0.007c0.101-0.01,0.181-0.041,0.257-0.109
					c0.029-0.026,0.039-0.068,0.041-0.112C21.285,125.355,20.69,124.995,20.218,124.609z"/>
				<path style="fill:#868B9B;" d="M21.015,126.587c-0.063,0.016-0.119,0.056-0.177,0.083c-0.013,0.006-0.026,0.011-0.039,0.017
					c-0.005,0.002-0.01,0.004-0.015,0.006c0.02-0.008,0.003-0.001-0.001,0c-0.029,0.01-0.058,0.019-0.087,0.028
					c-0.121,0.036-0.235,0.049-0.357,0.021c-0.037-0.008-0.06,0.032-0.063,0.062c-0.004,0.038,0.011,0.08,0.045,0.1
					c0.209,0.124,0.464,0.121,0.691,0.058c0.033-0.009,0.068-0.018,0.097-0.036c0.045-0.028,0.076-0.065,0.093-0.116
					c0.023-0.068,0.007-0.143-0.045-0.193C21.119,126.579,21.063,126.575,21.015,126.587z"/>
				<g>
					<path style="fill:#868B9B;" d="M22.591,127.856c-0.033-0.015-0.064-0.033-0.097-0.049c-0.052-0.008-0.103-0.016-0.152-0.029
						c-0.218-0.059-0.442-0.187-0.562-0.383c-0.066-0.039-0.133-0.076-0.2-0.113c-0.002,0.013-0.008,0.024-0.005,0.038
						c0.112,0.577,0.786,0.89,1.325,0.872c0.128-0.004,0.274-0.03,0.379-0.108c0.027-0.02,0.048-0.045,0.063-0.073
						C23.088,128.012,22.837,127.965,22.591,127.856z"/>
				</g>
				<path style="fill:#868B9B;" d="M21.774,128.614c-0.062,0.001-0.122,0-0.184,0.007c-0.06,0.007-0.119,0.01-0.179,0.01
					c-0.057,0-0.115,0.007-0.171-0.004c-0.06-0.011-0.119-0.043-0.171-0.073c-0.032-0.018-0.061,0.01-0.068,0.04
					c-0.008,0.036,0.007,0.077,0.038,0.097c0.057,0.037,0.117,0.061,0.179,0.088c0.065,0.028,0.128,0.061,0.197,0.077
					c0.062,0.015,0.129,0.018,0.193,0.021c0.037,0.001,0.075,0.005,0.111-0.003c0.034-0.007,0.067-0.015,0.101-0.024
					c0.056-0.014,0.075-0.083,0.064-0.134C21.87,128.659,21.835,128.613,21.774,128.614z"/>
				<path style="fill:#868B9B;" d="M23.326,130.427c-0.061,0.043-0.125,0.081-0.192,0.114c-0.12,0.058-0.251,0.093-0.384,0.106
					c-0.129,0.012-0.254,0.01-0.38-0.02c-0.135-0.033-0.28-0.09-0.384-0.182c-0.07-0.062-0.104,0.07-0.056,0.118
					c0.121,0.121,0.238,0.234,0.393,0.31c0.137,0.068,0.295,0.119,0.448,0.123c0.159,0.004,0.315-0.016,0.465-0.068
					c0.175-0.061,0.423-0.152,0.427-0.369c0.002-0.073-0.033-0.153-0.098-0.191C23.479,130.318,23.397,130.378,23.326,130.427z"/>
				<path style="fill:#868B9B;" d="M23.495,132.007c-0.015,0.009-0.031,0.018-0.047,0.026c-0.024,0.012-0.042,0.029-0.062,0.046
					c-0.003,0.003-0.028,0.024-0.006,0.006c-0.008,0.006-0.015,0.012-0.022,0.019c0.016-0.014-0.053,0.043-0.023,0.02
					c-0.008,0.006-0.015,0.012-0.023,0.019c-0.059,0.047-0.124,0.089-0.193,0.121c-0.007,0.003-0.014,0.007-0.022,0.01
					c-0.001,0-0.027,0.011-0.013,0.006c-0.018,0.007-0.036,0.012-0.054,0.018c-0.036,0.011-0.072,0.02-0.109,0.025
					c-0.073,0.01-0.14,0.004-0.208-0.024c-0.083-0.035-0.097,0.114-0.032,0.143c0.156,0.072,0.328,0.102,0.496,0.06
					c0.083-0.02,0.165-0.053,0.24-0.094c0.037-0.02,0.071-0.042,0.104-0.067c0.047-0.036,0.074-0.082,0.106-0.132
					C23.677,132.132,23.6,131.946,23.495,132.007z"/>
				<path style="fill:#868B9B;" d="M24.114,134.516c-0.03,0-0.051,0.015-0.075,0.03c-0.027,0.017-0.054,0.034-0.081,0.05
					c-0.054,0.032-0.11,0.062-0.168,0.088c-0.028,0.013-0.056,0.025-0.084,0.038c-0.014,0.007-0.029,0.013-0.044,0.019
					c-0.003,0.001-0.018,0.007-0.009,0.004c-0.008,0.003-0.017,0.006-0.025,0.009c-0.03,0.01-0.062,0.022-0.094,0.026
					c-0.03,0.003-0.061-0.001-0.091-0.004c-0.086-0.009-0.077,0.151-0.002,0.161c0.034,0.005,0.068,0.006,0.103,0.007
					c0.032,0.001,0.065,0.007,0.097,0.009c0.07,0.004,0.142,0.004,0.21-0.012c0.062-0.014,0.123-0.032,0.183-0.053
					c0.036-0.013,0.073-0.027,0.108-0.041c0.015-0.006,0.033-0.01,0.047-0.018c0.037-0.021,0.056-0.068,0.062-0.109
					c0.008-0.053,0-0.13-0.048-0.166C24.176,134.534,24.15,134.516,24.114,134.516z"/>
				<path style="fill:#868B9B;" d="M24.76,136.444c-0.009,0-0.018,0-0.027,0c-0.011,0-0.022-0.001-0.032,0
					c-0.008,0.001-0.017,0.005-0.025,0.007c-0.018,0.005-0.037,0.01-0.055,0.015c-0.038,0.009-0.076,0.018-0.115,0.025
					c-0.021,0.004-0.038,0.021-0.047,0.04c-0.011,0.022-0.013,0.053-0.008,0.076c0.01,0.045,0.041,0.094,0.094,0.088
					c0.045-0.005,0.089-0.011,0.134-0.019c0.024-0.004,0.049-0.008,0.071-0.016c0.023-0.009,0.043-0.023,0.063-0.036
					c0.036-0.023,0.04-0.074,0.029-0.111c-0.005-0.018-0.014-0.038-0.029-0.05c-0.005-0.004-0.011-0.008-0.016-0.012
					C24.785,136.443,24.772,136.441,24.76,136.444z"/>
			</g>
			<path style="fill:#A9ABA4;" d="M25.504,103.21c0.009-0.014,0.013-0.027,0.025-0.04c1.016-1.056,2.409-1.68,3.743-2.23
				c0.98-0.404,1.966-0.792,2.952-1.183c-0.226,0.03-0.449,0.066-0.668,0.106c-0.785,0.145-1.552,0.369-2.295,0.658
				c-1.446,0.563-2.984,1.381-3.943,2.637c-0.032,0.042,0,0.173,0.068,0.129C25.426,103.261,25.464,103.235,25.504,103.21z"/>
			<path style="fill:#A9ABA4;" d="M32.913,100.9c-0.713,0.663-1.342,1.421-1.943,2.185c-1.263,1.607-2.299,3.37-3.303,5.145
				c-0.573,1.012-1.109,2.047-1.714,3.04c-0.027,0.044,0.034,0.123,0.07,0.065c1.015-1.614,1.99-3.251,2.996-4.871
				c1-1.61,2.098-3.159,3.382-4.557c0.361-0.393,0.741-0.77,1.157-1.104c0.297-0.238,0.715-0.607,1.125-0.462
				c0.197,0.07,0.225-0.264,0.073-0.334C34.093,99.702,33.347,100.497,32.913,100.9z"/>
		</g>
	</g>
	<g>
		<path style="fill:#353738;" d="M22.464,132.818c-1.067-2.872-2.226-5.711-3.157-8.631c-0.932-2.92-1.682-5.897-2.259-8.907
			c-1.149-5.99-1.608-12.087-1.698-18.179c-0.05-3.399,0.081-6.795,0.25-10.189c0.127-2.561,0.138-5.145,0.519-7.684
			c0.278-1.85,0.631-3.795,0.342-5.664c-0.115-0.742-0.368-1.548-0.991-2.02c-0.063-0.047-0.13-0.083-0.196-0.121
			c-2.421,0.849-4.849,0.988-6.843,2.637c-1.155,0.955-1.104,2.014-1.28,3.067c0.244,2.498,0.229,2.735,0.387,5.346
			c0.442,7.311,0.496,14.516,1.808,21.755c1.508,8.334,3.829,16.724,7.234,24.596c1.05,2.057,2.165,4.075,3.371,6.036
			c1.719,2.805,3.17,5.879,5.353,8.375c0.884,1.006,1.94,2.998,3.302,3.516C25.969,142.42,24.217,137.536,22.464,132.818z"/>
		<path style="opacity:0.5;fill:#0B0A06;" d="M22.464,132.818c-1.067-2.872-2.226-5.711-3.157-8.631
			c-0.932-2.92-1.682-5.897-2.259-8.907c-1.149-5.99-1.608-12.087-1.698-18.179c-0.006-0.397-0.002-0.794-0.003-1.191
			c-0.312-1.679-0.525-3.227-0.567-4.462c-0.415,5.339-1.757,19.126-2.079,18.621c-1.274-2-2.396-4.071-3.411-6.191
			c0.017,0.118,0.033,0.233,0.056,0.35c1.508,8.334,3.829,16.724,7.234,24.596c1.05,2.057,2.165,4.075,3.371,6.036
			c1.719,2.805,3.17,5.879,5.353,8.375c0.884,1.006,1.94,2.998,3.302,3.516C25.969,142.42,24.217,137.536,22.464,132.818z"/>
		<path style="fill:#636466;" d="M22.464,132.818c-1.067-2.872-2.226-5.711-3.157-8.631c-0.549-1.72-1.027-3.462-1.452-5.216
			c-0.713-2.816-1.254-5.681-1.594-8.597c-0.581-4.398-0.846-8.836-0.911-13.273c-0.05-3.399,0.081-6.795,0.25-10.189
			c0.127-2.561,0.138-5.145,0.519-7.684c0.126-0.84,0.265-1.701,0.355-2.564c0.023-0.422,0.046-0.845,0.069-1.267
			c0.013-0.24-0.328-0.538-0.371-0.177c-2.554,21.755-3.432,46.332,9.274,65.284C24.36,137.969,23.412,135.37,22.464,132.818z"/>
		<path style="fill:#636466;" d="M9.151,75.598C7.467,76.53,9.072,88.474,9.249,92.979c0.191,4.811,2.409,14.859,2.436,15.06
			c0.014,0.101,0.028,0.201,0.042,0.301c1.35,9.445,4.365,17.556,8.639,25.979c0.13,0.258,0.287-0.052,0.23-0.222
			c-9.466-28.48-6.099-58.89-5.997-60.046C14.722,72.681,10.541,74.829,9.151,75.598z"/>
		<path style="fill:#636466;" d="M12.612,110.213c-0.886-5.42-1.562-10.871-2.177-16.328c-0.284-2.521-0.566-5.041-0.817-7.566
			c-0.184-1.854-0.367-3.723-0.268-5.588c0.088-1.663,0.413-3.355,1.286-4.796c0.433-0.714,0.984-1.319,1.609-1.835
			c-1.155,0.463-2.436,1.134-3.094,1.498C7.467,76.53,9.072,88.474,9.249,92.979c0.191,4.811,2.409,14.859,2.436,15.06
			c0.014,0.101,0.028,0.201,0.042,0.301c0.701,4.903,1.854,9.446,3.396,13.861C14.064,118.256,13.271,114.243,12.612,110.213z"/>
	</g>
</g>
</svg>
